<?xml version="1.0" encoding="UTF-8"?>
<svg id="Layer_1" data-name="Layer 1" xmlns="http://www.w3.org/2000/svg" viewBox="0 0 4108.34 1275.27">
  <defs>
    <style>
      .cls-1 {
        font-size: 58.14px;
      }

      .cls-1, .cls-2, .cls-3, .cls-4, .cls-5, .cls-6, .cls-7, .cls-8, .cls-9, .cls-10, .cls-11, .cls-12, .cls-13, .cls-14, .cls-15, .cls-16, .cls-17, .cls-18, .cls-19, .cls-20, .cls-21, .cls-22, .cls-23, .cls-24, .cls-25, .cls-26, .cls-27, .cls-28, .cls-29, .cls-30, .cls-31, .cls-32, .cls-33, .cls-34, .cls-35, .cls-36, .cls-37, .cls-38, .cls-39 {
        fill: #be1e2d;
      }

      .cls-1, .cls-2, .cls-3, .cls-4, .cls-5, .cls-6, .cls-8, .cls-9, .cls-10, .cls-11, .cls-12, .cls-13, .cls-14, .cls-15, .cls-16, .cls-17, .cls-18, .cls-19, .cls-20, .cls-21, .cls-22, .cls-23, .cls-24, .cls-25, .cls-26, .cls-27, .cls-28, .cls-29, .cls-30, .cls-31, .cls-32, .cls-33, .cls-34, .cls-35, .cls-36, .cls-37, .cls-38, .cls-39 {
        font-weight: 700;
      }

      .cls-1, .cls-2, .cls-3, .cls-4, .cls-5, .cls-6, .cls-8, .cls-9, .cls-10, .cls-11, .cls-12, .cls-13, .cls-14, .cls-15, .cls-16, .cls-17, .cls-18, .cls-19, .cls-20, .cls-21, .cls-23, .cls-24, .cls-25, .cls-26, .cls-27, .cls-28, .cls-29, .cls-30, .cls-31, .cls-32, .cls-33, .cls-35, .cls-36, .cls-37, .cls-38, .cls-39 {
        font-family: Arial-BoldMT, Arial;
        isolation: isolate;
      }

      .cls-2 {
        font-size: 58.19px;
      }

      .cls-40 {
        fill: #e3b01f;
      }

      .cls-3 {
        font-size: 58.14px;
      }

      .cls-4 {
        font-size: 58.14px;
      }

      .cls-41 {
        letter-spacing: -.03em;
      }

      .cls-42 {
        letter-spacing: -.01em;
      }

      .cls-5 {
        font-size: 58.03px;
      }

      .cls-6 {
        font-size: 58.19px;
      }

      .cls-8 {
        font-size: 57.79px;
      }

      .cls-9 {
        font-size: 58.14px;
      }

      .cls-10 {
        font-size: 58.39px;
        letter-spacing: -.04em;
      }

      .cls-11 {
        font-size: 58.08px;
      }

      .cls-12 {
        font-size: 58.14px;
      }

      .cls-43 {
        letter-spacing: -.01em;
      }

      .cls-13 {
        font-size: 58.14px;
        letter-spacing: -.02em;
      }

      .cls-14 {
        font-size: 58.14px;
      }

      .cls-15 {
        font-size: 58.31px;
      }

      .cls-16 {
        font-size: 58.14px;
      }

      .cls-17 {
        font-size: 58.14px;
        letter-spacing: -.04em;
      }

      .cls-18 {
        font-size: 58.14px;
      }

      .cls-19 {
        font-size: 58.24px;
      }

      .cls-20 {
        font-size: 58.14px;
      }

      .cls-21 {
        font-size: 58.14px;
      }

      .cls-22 {
        font-size: 393.58px;
      }

      .cls-22, .cls-34 {
        font-family: Roboto-Bold, Roboto;
      }

      .cls-23 {
        font-size: 58.14px;
      }

      .cls-24 {
        font-size: 58.14px;
      }

      .cls-25 {
        font-size: 58.14px;
      }

      .cls-26 {
        font-size: 58.14px;
      }

      .cls-27 {
        font-size: 58.14px;
      }

      .cls-28 {
        font-size: 57.93px;
      }

      .cls-29 {
        font-size: 58.13px;
      }

      .cls-30 {
        font-size: 58.38px;
      }

      .cls-44 {
        letter-spacing: 0em;
      }

      .cls-31 {
        font-size: 58.14px;
      }

      .cls-32 {
        font-size: 58.14px;
      }

      .cls-33 {
        font-size: 58.24px;
        letter-spacing: -.04em;
      }

      .cls-34 {
        font-size: 131.18px;
      }

      .cls-35 {
        font-size: 58.14px;
        letter-spacing: -.04em;
      }

      .cls-45 {
        letter-spacing: -.06em;
      }

      .cls-46 {
        letter-spacing: 0em;
      }

      .cls-36 {
        font-size: 58.13px;
      }

      .cls-47 {
        letter-spacing: 0em;
      }

      .cls-37 {
        font-size: 58.14px;
        letter-spacing: -.04em;
      }

      .cls-38 {
        font-size: 58.14px;
      }

      .cls-48 {
        fill: #efd24e;
      }

      .cls-39 {
        font-size: 58.14px;
      }

      .cls-49 {
        letter-spacing: 0em;
      }

      .cls-50 {
        fill: none;
        stroke: #be1e2d;
        stroke-linecap: round;
        stroke-miterlimit: 10;
        stroke-width: 3px;
      }

      .cls-51 {
        letter-spacing: 0em;
      }
    </style>
  </defs>
  <g>
    <path class="cls-48" d="m1180.46,674.49c0-286.09-231.91-518-518-518S144.46,388.4,144.46,674.49s231.91,518,518,518,518-231.91,518-518Zm-915.68,0c0-219.63,178.05-397.68,397.68-397.68s397.68,178.05,397.68,397.68-178.05,397.68-397.68,397.68-397.68-178.05-397.68-397.68h0Z"/>
    <path class="cls-7" d="m1060.14,674.49c0,219.63-178.05,397.68-397.68,397.68s-397.68-178.05-397.68-397.68,178.05-397.68,397.68-397.68,397.68,178.05,397.68,397.68Z"/>
    <path class="cls-48" d="m1265.89,417.87c-4.68-16.15-11.39-31.65-17.2-47.48-3.63,4.84-6.62,10.17-8.88,15.83-2.58,6.38-5.41,16.31-4.36,37.79,1.29,27.7,7.27,38.19,9.21,74.85.08,1.13.08,2.02.16,2.58-8.16-29.15-18.9-57.49-32.06-84.79,7.83-13.97,9.37-27.62,7.83-41.99-5.25-48.05-26.49-89.23-54.67-127.42-2.26-2.99-4.84-5.73-9.93-11.71,0,14.86-2.42,26.4.48,36.5,8.88,30.68,19.94,60.8,29.88,91.16.81,2.58,1.45,5.25,1.94,7.91-15.99-26.65-34.16-52-54.18-75.74,5.41-4.12,6.06-13.65,2.5-31.01-11.71-57.49-51.28-96.41-96.66-130.97,6.78,53.94,46.27,91.33,72.92,136.22-.81-.08-1.37-.08-1.94-.16-4.52-4.84-9.21-9.61-13.89-14.29-21.72-21.56-44.98-41.5-69.52-59.83,0,0-11.22-44.82-13.89-53.7-7.27-24.47-32.95-56.2-115.31-86.8,3.71,21.24,15.99,34.64,28.58,47.48,12.6,12.84,25.68,24.79,38.92,36.74,13.24,11.95,26.81,23.34,40.21,34.88-5.49-.73-10.82-2.34-15.83-4.6-20.35-13.32-41.75-25.76-64.03-37.47-52-46.59-122.09-67.42-191.13-56.93l178.45,53.13c21.8,10.98,42.23,22.45,61.29,34.32-27.05-11.47-55.15-18.57-85.11-15.91-11.3.97-22.45,3.07-31.9,15.5,40.05,11.47,77.76,23.17,116.12,32.7,14.37,3.55,29.96,2.58,44.98,2.75,2.02.08,4.04-.24,5.98-.89,27.45,20.43,53.21,43.04,77.2,67.51-1.29-1.05-2.58-2.02-3.88-3.07-24.87-20.19-51.68-36.9-83.57-43.28-13.08-2.58-26.4-3.88-40.62,5.41,28.34,17.12,55.07,34.08,82.61,49.58,15.1,8.48,30.93,16.55,47.4,21.24,13,3.71,22.13,5.09,27.7,2.75,21.56,25.44,40.86,52.65,57.73,81.31.08.48.16.89.24,1.37-33.67-32.78-61.45-70.82-114.42-68.31,12.44,24.14,43.44,75.18,103.2,98.75,10.58,4.2,21.56,7.35,32.78,9.37,14.13,29.39,25.35,60.08,33.51,91.57v4.12c-4.04-1.45-5.25-1.53-5.49-2.1-1.86-3.47-3.47-7.11-5.17-10.74-12.6-26.4-27.78-51.03-51.52-69.04-9.69-7.35-20.03-14.53-36.01-11.63,33.99,49.66,52.73,108.44,106.59,141.23,14.7-14.86,20.91-33.11,23.01-53.7,3.15-31.09-1.62-61.29-10.26-91Z"/>
    <path class="cls-40" d="m629.35,95.93c-2.42,7.43-4.52,15.02-7.67,25.68,9.04-6.46,15.18-10.82,21.24-15.18q18.01-13.08,35.45-.4c6.3,4.52,12.6,8.96,22.04,15.75-4.2-13.48-6.38-23.58-10.5-32.7-4.84-10.74-1.78-17.04,7.67-22.69,8.72-5.25,16.63-11.79,24.87-17.76-11.87-2.26-24.06-2.99-36.09-2.34-7.51.4-11.39-2.1-13.32-9.53-2.99-11.14-7.03-21.96-11.87-36.74-4.36,12.84-8.64,22.37-10.74,32.3-2.42,11.55-8.48,15.02-19.62,14.05-10.26-.89-20.59-.16-34.56-.16,9.69,7.19,15.83,11.71,21.88,16.15,17.93,13,17.85,13,11.22,33.59Z"/>
    <path class="cls-48" d="m1191.2,981.82c6.06.08,12.76-4.04,18.25-7.75,48.85-33.03,72.35-82.77,88.58-137.35-45.95,23.74-66.54,70.17-97.14,107.88.73-3.31,1.86-6.46,3.23-9.53,8.96-21.32,18.33-42.55,26.65-64.11,4.44-11.55,6.7-23.58,21.8-26.89,5.09-1.13,9.93-6.06,13.73-10.34,39.32-43.85,50.14-97.71,52.81-154.63-39.97,35.53-48.45,87.69-68.64,131.94,4.36-32.7,8.8-66.62,13.57-100.45.4-2.66,2.1-6.06,4.28-7.51,15.34-10.34,24.39-25.68,28.18-42.64,5.73-26,10.34-52.49,12.03-78.97,1.29-20.11-2.91-40.54-4.6-60.8-24.95,42.07-38.11,90.03-38.27,138.89-.32-17.36-1.61-34.72-4.12-51.92-.65-4.36-4.12-19.38-7.19-40.29-.32-2.26-.57-4.04-.73-5.25-.08.08-.24.16-.32.16h-.08l-.32.08c-.08.08-.08.16-.16.24.16,1.29.4,3.23.73,5.57,2.99,23.01,5.01,37.06,5.73,42.64,2.02,15.91,3.07,31.9,2.99,47.96-11.95-44.09-19.86-89.63-67.1-112.4,7.03,31.25,15.67,62.1,26,92.38,7.99,23.58,15.91,47.56,36.18,64.52,1.7,1.45,2.91,4.76,2.58,7.03-3.96,32.95-8.24,65.89-12.44,98.84l-4.12-.4c0-19.06,1.05-38.19-.24-57.25-2.02-27.94-5.33-48.61-21.4-62.34-5.17-4.44-11.22-7.75-17.68-9.77,2.99,37.79,4.93,75.74,9.37,113.29,1.86,15.99,7.11,32.3,14.05,46.83,4.04,8.4,6.22,14.53,2.58,23.01-5.41,12.68-9.69,25.84-15.02,38.6-5.49,13.16-11.71,26-17.68,38.92-1.29-5.65.08-10.25,1.37-14.86,8.4-28.99,13.65-58.3,6.62-88.42-2.5-10.98-5.73-21.96-17.93-28.83-5.57,28.02-12.03,54.5-15.91,81.39-4.2,29.72-12.84,59.92,1.13,89.55.73,1.53,0,4.52-1.13,6.06-18.57,26.4-37.22,52.65-55.96,78.89l-3.31-2.18c2.26-3.63,4.52-7.19,6.78-10.82,13.97-23.09,25.19-47.24,29.07-74.21,2.26-15.91,2.91-31.73-9.77-48.45-16.8,38.92-33.91,75.18-48.05,112.56-5.81,15.34-4.93,33.03-7.75,49.58-.73,4.28-3.07,9.21-6.3,11.87-22.85,19.3-46.11,38.19-69.28,57.09-1.94,1.53-4.52,2.34-6.78,3.55,3.47-5.41,7.75-9.29,11.87-13.4,37.39-37.39,51.76-60.56,52.32-85.43.16-6.3-.73-15.91-6.06-27.78-25.84,35.13-51.92,70.09-77.36,105.54-4.84,6.7-10.34,15.5-9.93,23.01,1.13,20.91-13.32,26.81-27.62,33.75-16.07,7.83-32.06,15.67-48.29,23.17-5.81,2.66-12.11,4.44-18.25,6.62,2.91-4.28,6.7-6.54,10.42-8.8,49.82-30.04,55.23-42.64,64.03-57.9,4.6-8.07,9.77-20.67,10.25-39.32-1.13.73-2.99,1.86-5.33,3.31-37.31,23.66-64.76,50.06-92.21,73.48-10.5,8.96-18.9,21.64-25.03,34.16-3.55,7.35-6.86,11.22-14.21,13.16-58.38,15.83-117.73,23.74-178.37,22.04-46.43-1.29-92.62-7.67-137.68-18.9-13.24-3.31-25.6-5.65-28.58-22.45-.97-5.57-6.06-10.98-10.5-15.18-16.15-15.42-32.22-30.93-49.42-45.14-18.81-15.42-38.84-29.39-59.67-45.06-3.71,19.38,3.88,33.19,13.65,45.22,10.09,12.44,21.4,23.9,33.67,34.24,11.47,9.61,24.63,17.12,37.06,25.52-.65,1.13-1.29,2.34-1.94,3.47-28.5-14.37-57.09-28.75-85.51-43.28-2.02-1.05-4.52-3.88-4.52-5.81.08-27.62-16.31-47.8-31.25-68.07-19.22-26.08-39.97-50.95-60.08-76.31-3.63,49.74,18.81,97.79,59.35,126.86-23.98-17.6-46.75-36.58-69.52-55.47-8.48-7.03-15.5-13.81-12.03-26.81,1.61-5.98.4-13.73-1.94-19.7-14.7-37.22-29.96-74.29-45.22-111.27-2.75-6.62-6.54-12.92-9.77-19.3-14.21,45.46-4.84,94.96,24.95,132.1-20.03-25.27-38.68-51.6-57.17-77.92-1.13-1.61-1.94-4.52-1.21-6.06,10.9-21.8,7.83-44.57,4.36-67.02-5.41-34.48-12.19-68.8-18.41-103.2-25.84,39-29.63,88.58-10.01,131.14-11.22-23.09-20.75-46.51-30.52-69.85-4.93-11.71-9.12-22.85,2.42-33.91,3.47-3.31,4.84-9.53,5.81-14.7,5.57-29.39,9.12-55.31,9.12-55.31.89-25.11,2.58-55.55,4.6-92.38l-5.33,3.96c-38.76,35.85-33.91,84.06-34.56,131.22-5.73-27.94-9.93-55.96-14.29-83.98-1.86-12.03-.81-22.77,10.82-30.12,2.42-1.53,4.04-4.76,5.57-7.43,25.52-43.6,35.37-92.54,47.56-141.07-46.83,22.93-54.67,68.72-67.83,112.24l9.53-94.72c.16-.24.32-.48.4-.73v-.08l1.29-1.53c13.08-10.82,28.58-20.03,37.95-33.43,5.73-8.32,41.42-44.33,64.92-104.25l.48-1.21c-44.57,13.65-79.78,48.05-94.39,92.3-.16-.57-.32-1.05-.48-1.61,7.83-31.65,18.65-62.58,32.38-92.13,2.99,1.86,7.59.57,16.63-3.07,13.24-5.33,25.35-13,35.93-22.53,26.65-24.31,52-50.14,77.76-75.5,2.34-2.26,4.04-5.09,6.06-7.75-.57-1.53-1.21-3.07-1.86-4.6-12.52,2.99-25.84,4.2-37.39,9.37-27.05,12.03-47.4,32.86-65.57,55.8-2.99,3.8-6.94,6.86-10.42,10.26.48-2.02.97-4.04,1.53-6.06,16.39-28.42,35.13-55.47,55.96-80.75,3.55,1.7,8.88,1.78,16.71.97,5.33-.48,10.58-1.7,15.58-3.47,44.98-17.12,83.9-44.65,126.61-71.46-28.5-11.55-52.73-4.2-75.26,7.67-18.9,10.01-36.66,22.21-55.8,34.72,23.58-24.95,49.09-48.05,76.31-69.04,2.83,1.7,7.03,2.5,13,2.58,17.6.32,35.69-1.21,52.73-5.57,34.72-8.8,68.8-20.03,106.59-31.33-26.57-20.11-52.57-17.04-77.36-11.14-20.35,4.84-39.89,12.68-60.24,20.11,21.16-14.45,43.04-27.86,65.57-40.13l192.75-54.83c-67.99-10.5-137.68,8.24-191.94,51.36-25.84,13.97-50.79,29.47-74.85,46.27-1.37.48-2.83.97-4.2,1.45,4.6-4.04,8.64-7.51,12.52-11.14,47.8-45.3,66.78-52.32,81.15-77.6,5.33-9.37,9.29-19.46,11.95-29.88-43.6,19.54-83.17,44.82-111.59,84.3-7.67,10.9-13.57,22.93-17.44,35.69-2.66,8.56-2.83,14.13.08,17.44-27.29,21.08-52.89,44.25-76.55,69.28-2.26,2.34-4.44,4.76-6.62,7.19l-.65.4c4.6-6.78,8.07-11.87,11.47-17.04,32.22-50.23,47.96-61.21,55.8-87.93,3.15-10.9,4.76-22.21,4.68-33.51h0c-41.42,33.75-77.2,71.87-93.43,124.84-1.78,5.98-2.75,12.19-2.91,18.49-.4,10.17.4,16.15,3.96,19.3-18.81,22.93-35.93,47.24-51.11,72.75,12.76-42.15,34.24-81.47,28.1-127.5-31.17,36.42-54.34,76.63-61.37,124.11-2.02,13.81-2.34,28.91,1.37,42.15,1.7,6.3,2.91,10.42,4.6,12.84-13.24,28.5-23.9,58.22-31.73,88.66-.4-2.75-.48-5.57-.24-8.4,2.34-32.86,5.49-65.65,6.86-98.59.4-10.01-4.12-20.27-6.38-30.44-19.22,33.11-29.47,67.34-31.98,103.76-2.18,31.65-1.29,62.5,21.88,87.53,0,.48-.08.73-.08.81-.16.57.08,1.13.48,1.45l1.86-3.88-2.5.73c-.4,1.7-.97,3.88-1.53,6.62l-.32,1.78c-.81,4.6-9.12,80.26-10.17,90.36-1.13-9.21-1.78-18.98-3.47-28.58-5.17-28.91-10.01-57.9-16.39-86.56-1.94-8.64-8.48-16.23-12.92-24.22-10.09,35.37-11.3,69.44-6.3,103.68,3.88,26.32,9.12,53.21,29.23,71.7,11.47,10.5,13.65,21.48,14.53,34.72.32,4.84.89,9.77,1.61,14.62,3.55,22.29,7.19,44.65,10.74,66.94-1.94-4.28-5.41-12.11-9.61-22.04-19.94-47.08-23.34-64.11-39.57-88.1-5.73-8.48-12.11-16.39-19.14-23.82l-4.12-3.07c17.76,103.12,33.19,137.51,45.06,146.56,1.78,1.37,14.05,12.03,30.85,26.81,3.96,3.47,8.72,6.94,10.66,11.47,11.14,25.76,21.56,51.76,32.22,77.76.97,2.34,1.61,4.76,2.42,7.19-8.16-8.96-14.29-18.81-21.24-28.1-24.22-32.14-29.31-46.03-46.91-60.16-9.29-7.43-19.7-13.32-30.77-17.6,11.87,38.68,29.07,74.69,55.88,105.38,16.8,19.22,34.64,37.71,62.74,39.65,1.78.16,3.96,1.94,5.09,3.63,19.06,26.73,38.03,53.46,57.98,81.56-4.2-3.71-7.27-6.62-10.5-9.29-50.71-41.1-58.62-54.67-79.38-63.63-10.42-4.44-21.4-7.51-32.7-8.96,25.03,40.54,55.07,76.47,97.62,99.97,10.74,5.89,23.74,13.24,34.8,11.95,21.64-2.58,31.98,11.06,44.82,22.61,2.99,2.66,6.06,5.33,9.21,7.83,17.04,13.57,34.08,27.13,51.11,40.7-5.17-.73-9.37-3.15-13.65-5.09-34.72-16.07-69.28-32.54-104.41-47.72-7.67-3.31-17.44-1.94-26.24-2.66,31.73,35.61,67.75,62.5,112.08,75.34,15.1,4.36,32.86,8.56,47.08,4.44,16.96-4.93,27.45,1.7,40.29,8.16,24.14,12.19,48.69,23.42,75.98,36.5-5.98-1.05-8.96-1.53-11.87-2.18-32.22-7.11-64.28-14.86-96.66-21.08-15.1-2.91-30.77-3.96-45.78,4.2,1.53,1.86,2.1,3.15,3.15,3.8,36.09,21.48,74.53,36.66,116.52,40.94,20.43,2.1,41.99,3.39,59.75-8.96,8.4-5.81,14.86-5.33,23.09-2.91,65.81,18.73,133.07,27.21,201.06,20.51,42.88-4.2,85.19-14.13,127.82-21.24,4.93-.81,9.93-.57,14.7.73,19.38,5.57,33.67,9.69,38.84,11.95,37.79,17.28,103.84-10.09,141.96-43.2,1.78-1.53,3.15-2.75,4.04-3.63-53.7-11.3-101.74,11.79-150.92,20.19,30.2-15.26,60.32-30.6,90.6-45.62,2.66-1.37,6.46-.97,9.69-.65,10.5,1.21,21.16,4.68,31.41,3.8,42.55-3.8,77.52-25.27,110.38-50.63,10.74-8.32,20.51-17.85,30.68-26.81-51.76,5.01-101.34,23.01-144.14,52.49,25.84-22.29,52.49-45.3,79.21-68.07,2.1-1.78,5.65-3.39,8.07-2.99,18.41,3.55,34.4-3.23,49.74-11.63,38.68-21.08,67.18-52.73,91.33-88.82,2.75-4.12,5.41-8.4,9.12-14.29-20.43.65-34.24,9.69-47.4,19.54-13.57,10.17-26.73,20.99-39.73,31.9-12.11,10.17-23.74,20.91-37.39,33.03,18.09-25.03,34.72-47.64,50.79-70.65,5.73-8.48,10.34-16.63,23.01-16.55Z"/>
    <path class="cls-48" d="m661.09,0c4.84,14.78,8.88,25.6,11.87,36.74,2.02,7.43,5.81,9.93,13.32,9.53,12.11-.73,24.22.08,36.09,2.34-8.24,5.98-16.15,12.52-24.87,17.76-9.45,5.65-12.52,11.95-7.67,22.69,4.12,9.12,6.3,19.22,10.5,32.7-9.45-6.78-15.83-11.22-22.04-15.75q-17.44-12.68-35.45.4c-6.06,4.44-12.27,8.8-21.24,15.26,3.15-10.66,5.25-18.25,7.67-25.68q6.7-20.59-11.22-33.59c-6.14-4.44-12.19-8.96-21.88-16.15,13.97,0,24.31-.73,34.56.16,11.14.97,17.2-2.42,19.62-14.05,2.1-10.01,6.38-19.54,10.74-32.38Z"/>
    <polygon class="cls-7" points="645.26 1166.97 664.56 1153.33 684.99 1165.28 677.96 1142.67 695.65 1126.92 671.99 1126.68 662.46 1105.04 654.87 1127.41 631.37 1129.75 650.35 1143.88 645.26 1166.97"/>
    <polygon class="cls-7" points="527.69 1132.49 546.91 1126.19 560.47 1141.05 560.47 1120.95 578.8 1112.55 559.58 1106.41 557.32 1086.39 545.53 1102.7 525.75 1098.66 537.62 1114.97 527.69 1132.49"/>
    <polygon class="cls-7" points="805.62 1128.86 792.06 1114 799.97 1095.43 781.64 1103.75 766.46 1090.5 768.72 1110.53 751.36 1120.87 771.14 1124.9 775.59 1144.52 785.6 1127 805.62 1128.86"/>
    <path class="cls-48" d="m713.98,896.79c7.43-4.68,15.18-8.64,23.26-11.95,11.79-5.01,23.42-10.58,35.69-14.53,61.13-19.78,98.11-60.96,114.26-124.84,8.64,27.05,7.75,51.11-5.17,74.21-12.92,23.09-33.11,38.68-56.44,49.42-22.04,10.17-45.38,17.52-68.23,25.92-38.11,13.97-59.03,42.8-60.88,83.49-1.13,25.19,4.84,48.29,18.73,69.28,1.29,1.78,2.26,3.8,2.58,5.98-24.31-19.38-39-44.09-41.34-75.42-2.02-27.7,7.19-57.17,28.99-75.34,2.83-2.18,5.57-4.28,8.56-6.22Z"/>
    <path class="cls-48" d="m625.23,913.18c3.55,4.04,6.54,8.48,9.04,13.24,2.26,4.44,4.12,8.96,5.57,13.73,4.36,14.29,5.33,29.39,2.99,44.09-2.26,14.94-7.59,29.23-15.67,41.91-3.39,5.33-7.35,10.42-11.71,15.02-2.18,2.26-4.44,4.44-6.78,6.46-1.21,1.05-2.42,2.02-3.63,2.99-.97.73-3.15,1.7-3.8,2.75,1.78-2.83,3.63-5.57,5.41-8.48,24.39-39.08,22.93-92.3-5.09-124.43-8.07-9.29-19.46-16.96-30.85-21.96-20.35-8.96-42.15-14.7-62.82-22.93-23.9-9.45-45.22-23.26-61.53-43.52-20.27-25.19-23.5-53.54-13.73-86.72,2.18,7.43,3.55,12.27,5.09,17.12,1.53,4.84,3.07,9.69,5.09,14.29,18.09,41.18,46.51,71.46,89.39,87.69,20.43,7.75,40.86,16.23,60.72,25.35,12.03,5.57,23.58,13.32,32.3,23.42Z"/>
    <path class="cls-48" d="m752.01,903.09c38.84-5.41,72.75-18.09,103.68-38.6,31.17-20.75,54.02-48.69,71.38-82.85,1.86,77.52-92.7,143.41-175.06,121.45Z"/>
    <path class="cls-48" d="m567.34,903.09c-79.54,23.9-172.32-40.54-174.82-122.25,17.76,35.04,40.86,63.23,72.35,84.06,30.93,20.43,64.76,32.86,102.47,38.19Z"/>
    <path class="cls-48" d="m852.62,911.16c-32.78,31.09-84.46,28.99-108.28-3.47q63.39,12.84,108.28,3.47Z"/>
    <path class="cls-48" d="m576.46,906.4c-24.31,33.67-75.74,35.85-109.82,4.12,37.87,10.82,73.64,9.69,109.82-4.12Z"/>
    <path class="cls-48" d="m807.89,950.08c-37.63,17.44-72.35.4-78.24-37.79,19.62,26.32,45.14,37.79,78.24,37.79Z"/>
    <path class="cls-48" d="m590.11,912.45c-5.25,37.71-39.65,54.75-78.41,37.71,33.59-.16,59.11-11.55,78.41-37.71Z"/>
    <polygon class="cls-48" points="656.89 306.44 665.2 327.92 688.14 329.21 670.29 343.66 676.19 365.95 656.89 353.43 637.59 365.95 643.4 343.66 625.64 329.21 648.57 327.92 656.89 306.44"/>
    <polygon class="cls-48" points="537.06 337.2 549.98 351.9 568.71 346.09 558.78 362.96 570.08 379.03 550.94 374.75 539.24 390.42 537.3 370.96 518.81 364.66 536.73 356.83 537.06 337.2"/>
    <polygon class="cls-48" points="781.16 335.51 782.45 355.05 800.78 361.91 782.61 369.26 781.72 388.8 769.21 373.78 750.31 378.95 760.73 362.4 749.99 346.09 768.96 350.85 781.16 335.51"/>
    <path class="cls-50" d="m487.07,1101.4c-114.99-44.65-206.88-134.04-254.76-247.74"/>
    <path class="cls-50" d="m839.54,1101.4c114.99-44.65,206.88-134.04,254.76-247.74"/>
    <path class="cls-48" d="m494.74,732.14h-44.41l-48.69-78.57c-7.11-11.79-13.48-24.06-18.9-36.74,2.91,11.47,4.28,21.16,4.28,29.15v86.16h-44.33v-177.89h51.6l41.42,65.16c8.24,12.92,14.45,24.31,18.73,34.16-2.83-15.42-4.2-31.01-4.2-46.67v-52.65h44.41l.08,177.89Z"/>
    <path class="cls-48" d="m580.34,554.26v177.89h-54.59v-177.89h54.59Z"/>
    <path class="cls-48" d="m817.25,680.63l50.71-9.12c4.28,14.37,15.18,21.48,32.86,21.48,13.73,0,20.59-3.63,20.59-10.98.08-3.63-1.7-6.94-4.76-8.88-3.15-2.1-8.8-4.04-16.96-5.65-31.17-5.98-51.19-13.81-60.08-23.42-8.72-9.21-13.48-21.4-13.32-34.08,0-16.8,6.38-30.68,19.06-41.83,12.76-11.14,31.01-16.71,54.91-16.71,36.26,0,60.16,14.53,71.79,43.6l-45.22,13.65c-4.68-11.87-14.21-17.85-28.5-17.85-11.87,0-17.85,3.71-17.85,11.06-.08,3.07,1.45,6.06,4.04,7.67,2.66,1.86,7.91,3.55,15.67,5.17,21.24,4.52,36.42,8.48,45.38,11.95s16.39,9.37,22.37,17.76c5.98,8.4,8.96,18.25,8.96,29.63,0,18.01-7.27,32.54-21.88,43.77-14.62,11.22-33.75,16.71-57.41,16.8-43.44.16-70.17-17.85-80.34-54.02Z"/>
    <polygon class="cls-48" points="860.05 466.16 794.97 554.34 760.24 601.33 753.95 609.89 752.01 612.47 745.14 639.2 721.08 732.06 686.44 732.06 652.2 604.97 652.2 732.06 611.34 732.06 611.34 554.34 682.64 554.34 708.48 648.73 733.03 554.34 786.24 554.34 860.05 466.16"/>
    <polygon class="cls-48" points="867.56 457.2 804.66 563.54 804.66 732.06 753.95 732.06 753.95 625.88 770.42 601.09 801.51 554.34 860.05 466.16 860.13 466.16 867.56 457.2"/>
    <path class="cls-48" d="m862.15,444.44c2.34-2.18,5.09-1.94,7.75-1.05,4.12,1.37,6.62.24,9.45-3.39,6.38-8.07,13.73-15.5,20.67-23.17,3.07-3.39,5.98-6.94,9.37-9.93,2.5-2.26,5.41-4.12,8.48-5.49,2.58-1.05,3.55.16,2.75,2.91-1.21,3.8-6.78,10.42-7.19,10.82-2.99,3.31-6.14,6.46-9.04,9.85-.97,1.13-1.37,2.58-1.37,4.04.48,4.68,1.37,9.29,2.1,13.89.73,4.76,1.61,9.53,2.1,14.37.24,2.02-1.21,6.46-1.61,6.46-1.61-3.07-3.15-6.22-4.76-9.29-2.58-4.93-5.17-9.77-7.67-14.7-.81-1.53-1.61-1.37-2.66-.32-2.91,2.75-5.89,5.41-8.64,8.32-.73.73-.73,2.42-.65,3.63.24,2.18,1.05,4.28,1.37,6.38.16,1.37-.24,2.83-.4,4.28l-.81.24c-1.86-2.02-15.02-14.53-19.22-17.85Z"/>
    <path class="cls-48" d="m858.19,419.89c2.42-.65,4.28-1.53,6.22-1.61,2.83,0,5.73.16,8.56.48,3.07.24,6.14.57,9.21.89l6.7.65c-2.91,3.15-5.49,5.98-8.07,8.72-.4.24-.89.32-1.29.08-7.03-2.99-13.97-5.98-21.32-9.21Z"/>
    <text class="cls-15" transform="translate(240.2 837.35) rotate(-106.81)"><tspan x="0" y="0">N</tspan></text>
    <text class="cls-35" transform="translate(226.19 789.61) rotate(-100.82)"><tspan x="0" y="0">A</tspan></text>
    <text class="cls-12" transform="translate(218.72 748.91) rotate(-96.06)"><tspan x="0" y="0">T</tspan></text>
    <text class="cls-6" transform="translate(215.39 714.23) rotate(-92.29)"><tspan x="0" y="0">I</tspan></text>
    <text class="cls-21" transform="translate(214.08 690.05) rotate(-87.53)"><tspan x="0" y="0">O</tspan></text>
    <text class="cls-32" transform="translate(216.54 639.49) rotate(-81.11)"><tspan x="0" y="0">N</tspan></text>
    <text class="cls-10" transform="translate(224.65 590.41) rotate(-75)"><tspan x="0" y="0">A</tspan></text>
    <text class="cls-13" transform="translate(236.22 548.55) rotate(-70.03)"><tspan x="0" y="0">L</tspan></text>
    <text class="cls-19" transform="translate(255.81 499.18) rotate(-63.95)"><tspan x="0" y="0">I</tspan></text>
    <text class="cls-36" transform="translate(266.2 477.31) rotate(-59.33)"><tspan x="0" y="0">N</tspan></text>
    <text class="cls-8" transform="translate(292.29 434.88) rotate(-53.59)"><tspan x="0" y="0">S</tspan></text>
    <text class="cls-26" transform="translate(314.43 405.38) rotate(-48.91)"><tspan x="0" y="0">T</tspan></text>
    <text class="cls-30" transform="translate(337.57 379.36) rotate(-45)"><tspan x="0" y="0">I</tspan></text>
    <text class="cls-11" transform="translate(354.75 362.1) rotate(-41.35)"><tspan x="0" y="0">T</tspan></text>
    <text class="cls-31" transform="translate(380.69 339.21) rotate(-36.13)"><tspan x="0" y="0">U</tspan></text>
    <text class="cls-36" transform="translate(418.82 312) rotate(-30.67)"><tspan x="0" y="0">T</tspan></text>
    <text class="cls-19" transform="translate(448.63 294.29) rotate(-26.05)"><tspan x="0" y="0">E</tspan></text>
    <text class="cls-4" transform="translate(500.47 270.22) rotate(-17.98)"><tspan x="0" y="0">O</tspan></text>
    <text class="cls-38" transform="translate(548.88 255.11) rotate(-12.25)"><tspan x="0" y="0">F</tspan></text>
    <text class="cls-9" transform="translate(603.64 244.27) rotate(-3.9)"><tspan x="0" y="0">M</tspan></text>
    <text class="cls-17" transform="translate(659.36 241.09) rotate(2.38)"><tspan x="0" y="0">A</tspan></text>
    <text class="cls-29" transform="translate(702.62 242.96) rotate(8.05)"><tspan x="0" y="0">N</tspan></text>
    <text class="cls-33" transform="translate(751.79 250.58) rotate(14.45)"><tspan x="0" y="0">A</tspan></text>
    <text class="cls-1" transform="translate(793.4 261.4) rotate(20.07)"><tspan x="0" y="0">G</tspan></text>
    <text class="cls-14" transform="translate(836.2 277.46) rotate(25.55)"><tspan x="0" y="0">E</tspan></text>
    <text class="cls-28" transform="translate(871.35 294.05) rotate(31.46)"><tspan x="0" y="0">M</tspan></text>
    <text class="cls-5" transform="translate(918.49 323.94) rotate(37.68)"><tspan x="0" y="0">E</tspan></text>
    <text class="cls-24" transform="translate(949.32 347.77) rotate(43.41)"><tspan x="0" y="0">N</tspan></text>
    <text class="cls-20" transform="translate(985.11 382.44) rotate(48.81)"><tspan x="0" y="0">T</tspan></text>
    <text class="cls-37" transform="translate(1019.02 423.01) rotate(56.15)"><tspan x="0" y="0">A</tspan></text>
    <text class="cls-39" transform="translate(1043.08 459.02) rotate(62.14)"><tspan x="0" y="0">N</tspan></text>
    <text class="cls-2" transform="translate(1066.03 503.12) rotate(68.3)"><tspan x="0" y="0">D</tspan></text>
    <text class="cls-27" transform="translate(1088.42 565.03) rotate(76.26)"><tspan x="0" y="0">S</tspan></text>
    <text class="cls-3" transform="translate(1097.1 600.8) rotate(81.48)"><tspan x="0" y="0">C</tspan></text>
    <text class="cls-25" transform="translate(1103.08 644.59) rotate(85.88)"><tspan x="0" y="0">I</tspan></text>
    <text class="cls-18" transform="translate(1104.66 668.93) rotate(89.07)"><tspan x="0" y="0">E</tspan></text>
    <text class="cls-23" transform="translate(1105.01 707.78) rotate(95.54)"><tspan x="0" y="0">N</tspan></text>
    <text class="cls-16" transform="translate(1099.8 757.25) rotate(101.57)"><tspan x="0" y="0">C</tspan></text>
    <text class="cls-15" transform="translate(1090.63 800.31) rotate(106.81)"><tspan x="0" y="0">E</tspan></text>
  </g>
  <g>
    <text class="cls-22" transform="translate(1828.93 684.46)"><tspan class="cls-49" x="0" y="0">N</tspan><tspan class="cls-45" x="281.35" y="0">A</tspan><tspan class="cls-46" x="523.11" y="0">TIO</tspan><tspan class="cls-49" x="1153.07" y="0">N</tspan><tspan x="1434.41" y="0">AL</tspan></text>
    <text class="cls-34" transform="translate(1461.88 891.95)"><tspan x="0" y="0">INST</tspan><tspan class="cls-42" x="292.66" y="0">I</tspan><tspan x="329.05" y="0">TUTE OF </tspan><tspan class="cls-51" x="879.27" y="0">M</tspan><tspan x="995.34" y="0">A</tspan><tspan class="cls-47" x="1083.6" y="0">N</tspan><tspan class="cls-43" x="1177.38" y="0">A</tspan><tspan x="1264.3" y="0">GEME</tspan><tspan class="cls-42" x="1616.15" y="0">N</tspan><tspan class="cls-41" x="1706.91" y="0">T</tspan><tspan class="cls-44" x="1784.23" y="0" xml:space="preserve"> AND SCIENCE</tspan></text>
  </g>
</svg>