<?xml version="1.0" encoding="utf-8"?>
<!-- Generator: Adobe Illustrator 25.1.0, SVG Export Plug-In . SVG Version: 6.00 Build 0)  -->
<svg version="1.1" id="Layer_1" xmlns="http://www.w3.org/2000/svg" xmlns:xlink="http://www.w3.org/1999/xlink" x="0px" y="0px"
	 viewBox="0 0 2000 2000" style="enable-background:new 0 0 2000 2000;" xml:space="preserve">
<style type="text/css">
	.st0{fill:#EFD24E;}
	.st1{fill:#BE1E2D;}
	.st2{fill:#E3B01F;}
	.st3{fill:none;stroke:#BE1E2D;stroke-width:3;stroke-linecap:round;stroke-miterlimit:10;}
	.st4{font-family:'Arial-BoldMT';}
	.st5{font-size:72.2049px;}
	.st6{font-size:72px;}
	.st7{font-size:72.0576px;}
	.st8{font-size:72.3054px;}
	.st9{font-size:72.1295px;}
	.st10{font-size:71.9892px;}
	.st11{font-size:71.5703px;}
	.st12{font-size:72.2946px;}
	.st13{font-size:71.9316px;}
	.st14{font-size:72.1223px;}
	.st15{font-size:71.7439px;}
	.st16{font-size:71.8631px;}
	.st17{font-size:72.0648px;}
</style>
<path class="st0" d="M1644.6,1045.6c0-354.3-287.2-641.5-641.5-641.5s-641.5,287.2-641.5,641.5s287.2,641.5,641.5,641.5
	S1644.6,1399.9,1644.6,1045.6z M510.6,1045.6c0-272,220.5-492.5,492.5-492.5s492.5,220.5,492.5,492.5s-220.5,492.5-492.5,492.5
	S510.6,1317.6,510.6,1045.6L510.6,1045.6z"/>
<path class="st1" d="M1495.6,1045.6c0,272-220.5,492.5-492.5,492.5s-492.5-220.5-492.5-492.5s220.5-492.5,492.5-492.5
	S1495.6,773.6,1495.6,1045.6z"/>
<path class="st0" d="M1750.4,727.8c-5.8-20-14.1-39.2-21.3-58.8c-4.5,6-8.2,12.6-11,19.6c-3.2,7.9-6.7,20.2-5.4,46.8
	c1.6,34.3,9,47.3,11.4,92.7c0.1,1.4,0.1,2.5,0.2,3.2c-10.1-36.1-23.4-71.2-39.7-105c9.7-17.3,11.6-34.2,9.7-52
	c-6.5-59.5-32.8-110.5-67.7-157.8c-2.8-3.7-6-7.1-12.3-14.5c0,18.4-3,32.7,0.6,45.2c11,38,24.7,75.3,37,112.9c1,3.2,1.8,6.5,2.4,9.8
	c-19.8-33-42.3-64.4-67.1-93.8c6.7-5.1,7.5-16.9,3.1-38.4c-14.5-71.2-63.5-119.4-119.7-162.2c8.4,66.8,57.3,113.1,90.3,168.7
	c-1-0.1-1.7-0.1-2.4-0.2c-5.6-6-11.4-11.9-17.2-17.7c-26.9-26.7-55.7-51.4-86.1-74.1c0,0-13.9-55.5-17.2-66.5
	c-9-30.3-40.8-69.6-142.8-107.5c4.6,26.3,19.8,42.9,35.4,58.8s31.8,30.7,48.2,45.5s33.2,28.9,49.8,43.2c-6.8-0.9-13.4-2.9-19.6-5.7
	c-25.2-16.5-51.7-31.9-79.3-46.4c-64.4-57.7-151.2-83.5-236.7-70.5l221,65.8c27,13.6,52.3,27.8,75.9,42.5
	c-33.5-14.2-68.3-23-105.4-19.7c-14,1.2-27.8,3.8-39.5,19.2c49.6,14.2,96.3,28.7,143.8,40.5c17.8,4.4,37.1,3.2,55.7,3.4
	c2.5,0.1,5-0.3,7.4-1.1c34,25.3,65.9,53.3,95.6,83.6c-1.6-1.3-3.2-2.5-4.8-3.8c-30.8-25-64-45.7-103.5-53.6
	c-16.2-3.2-32.7-4.8-50.3,6.7c35.1,21.2,68.2,42.2,102.3,61.4c18.7,10.5,38.3,20.5,58.7,26.3c16.1,4.6,27.4,6.3,34.3,3.4
	c26.7,31.5,50.6,65.2,71.5,100.7c0.1,0.6,0.2,1.1,0.3,1.7c-41.7-40.6-76.1-87.7-141.7-84.6c15.4,29.9,53.8,93.1,127.8,122.3
	c13.1,5.2,26.7,9.1,40.6,11.6c17.5,36.4,31.4,74.4,41.5,113.4c0,1.7,0,3.3,0,5.1c-5-1.8-6.5-1.9-6.8-2.6c-2.3-4.3-4.3-8.8-6.4-13.3
	c-15.6-32.7-34.4-63.2-63.8-85.5c-12-9.1-24.8-18-44.6-14.4c42.1,61.5,65.3,134.3,132,174.9c18.2-18.4,25.9-41,28.5-66.5
	C1767,802,1761.1,764.6,1750.4,727.8z"/>
<path class="st2" d="M962.1,329.1c-3,9.2-5.6,18.6-9.5,31.8c11.2-8,18.8-13.4,26.3-18.8c22.3-16.2,22.3-16.2,43.9-0.5
	c7.8,5.6,15.6,11.1,27.3,19.5c-5.2-16.7-7.9-29.2-13-40.5c-6-13.3-2.2-21.1,9.5-28.1c10.8-6.5,20.6-14.6,30.8-22
	c-14.7-2.8-29.8-3.7-44.7-2.9c-9.3,0.5-14.1-2.6-16.5-11.8c-3.7-13.8-8.7-27.2-14.7-45.5c-5.4,15.9-10.7,27.7-13.3,40
	c-3,14.3-10.5,18.6-24.3,17.4c-12.7-1.1-25.5-0.2-42.8-0.2c12,8.9,19.6,14.5,27.1,20C970.4,303.6,970.3,303.6,962.1,329.1z"/>
<path class="st0" d="M1657.9,1426.2c7.5,0.1,15.8-5,22.6-9.6c60.5-40.9,89.6-102.5,109.7-170.1c-56.9,29.4-82.4,86.9-120.3,133.6
	c0.9-4.1,2.3-8,4-11.8c11.1-26.4,22.7-52.7,33-79.4c5.5-14.3,8.3-29.2,27-33.3c6.3-1.4,12.3-7.5,17-12.8
	c48.7-54.3,62.1-121,65.4-191.5c-49.5,44-60,108.6-85,163.4c5.4-40.5,10.9-82.5,16.8-124.4c0.5-3.3,2.6-7.5,5.3-9.3
	c19-12.8,30.2-31.8,34.9-52.8c7.1-32.2,12.8-65,14.9-97.8c1.6-24.9-3.6-50.2-5.7-75.3c-30.9,52.1-47.2,111.5-47.4,172
	c-0.4-21.5-2-43-5.1-64.3c-0.8-5.4-5.1-24-8.9-49.9c-0.4-2.8-0.7-5-0.9-6.5c-0.1,0.1-0.3,0.2-0.4,0.2c0,0-0.1,0-0.1,0l-0.4,0.1
	c-0.1,0.1-0.1,0.2-0.2,0.3c0.2,1.6,0.5,4,0.9,6.9c3.7,28.5,6.2,45.9,7.1,52.8c2.5,19.7,3.8,39.5,3.7,59.4
	c-14.8-54.6-24.6-111-83.1-139.2c8.7,38.7,19.4,76.9,32.2,114.4c9.9,29.2,19.7,58.9,44.8,79.9c2.1,1.8,3.6,5.9,3.2,8.7
	c-4.9,40.8-10.2,81.6-15.4,122.4l-5.1-0.5c0-23.6,1.3-47.3-0.3-70.9c-2.5-34.6-6.6-60.2-26.5-77.2c-6.4-5.5-13.9-9.6-21.9-12.1
	c3.7,46.8,6.1,93.8,11.6,140.3c2.3,19.8,8.8,40,17.4,58c5,10.4,7.7,18,3.2,28.5c-6.7,15.7-12,32-18.6,47.8
	c-6.8,16.3-14.5,32.2-21.9,48.2c-1.6-7,0.1-12.7,1.7-18.4c10.4-35.9,16.9-72.2,8.2-109.5c-3.1-13.6-7.1-27.2-22.2-35.7
	c-6.9,34.7-14.9,67.5-19.7,100.8c-5.2,36.8-15.9,74.2,1.4,110.9c0.9,1.9,0,5.6-1.4,7.5c-23,32.7-46.1,65.2-69.3,97.7l-4.1-2.7
	c2.8-4.5,5.6-8.9,8.4-13.4c17.3-28.6,31.2-58.5,36-91.9c2.8-19.7,3.6-39.3-12.1-60c-20.8,48.2-42,93.1-59.5,139.4
	c-7.2,19-6.1,40.9-9.6,61.4c-0.9,5.3-3.8,11.4-7.8,14.7c-28.3,23.9-57.1,47.3-85.8,70.7c-2.4,1.9-5.6,2.9-8.4,4.4
	c4.3-6.7,9.6-11.5,14.7-16.6c46.3-46.3,64.1-75,64.8-105.8c0.2-7.8-0.9-19.7-7.5-34.4c-32,43.5-64.3,86.8-95.8,130.7
	c-6,8.3-12.8,19.2-12.3,28.5c1.4,25.9-16.5,33.2-34.2,41.8c-19.9,9.7-39.7,19.4-59.8,28.7c-7.2,3.3-15,5.5-22.6,8.2
	c3.6-5.3,8.3-8.1,12.9-10.9c61.7-37.2,68.4-52.8,79.3-71.7c5.7-10,12.1-25.6,12.7-48.7c-1.4,0.9-3.7,2.3-6.6,4.1
	c-46.2,29.3-80.2,62-114.2,91c-13,11.1-23.4,26.8-31,42.3c-4.4,9.1-8.5,13.9-17.6,16.3c-72.3,19.6-145.8,29.4-220.9,27.3
	c-57.5-1.6-114.7-9.5-170.5-23.4c-16.4-4.1-31.7-7-35.4-27.8c-1.2-6.9-7.5-13.6-13-18.8c-20-19.1-39.9-38.3-61.2-55.9
	c-23.3-19.1-48.1-36.4-73.9-55.8c-4.6,24,4.8,41.1,16.9,56c12.5,15.4,26.5,29.6,41.7,42.4c14.2,11.9,30.5,21.2,45.9,31.6
	c-0.8,1.4-1.6,2.9-2.4,4.3c-35.3-17.8-70.7-35.6-105.9-53.6c-2.5-1.3-5.6-4.8-5.6-7.2c0.1-34.2-20.2-59.2-38.7-84.3
	c-23.8-32.3-49.5-63.1-74.4-94.5c-4.5,61.6,23.3,121.1,73.5,157.1c-29.7-21.8-57.9-45.3-86.1-68.7c-10.5-8.7-19.2-17.1-14.9-33.2
	c2-7.4,0.5-17-2.4-24.4c-18.2-46.1-37.1-92-56-137.8c-3.4-8.2-8.1-16-12.1-23.9c-17.6,56.3-6,117.6,30.9,163.6
	c-24.8-31.3-47.9-63.9-70.8-96.5c-1.4-2-2.4-5.6-1.5-7.5c13.5-27,9.7-55.2,5.4-83c-6.7-42.7-15.1-85.2-22.8-127.8
	c-32,48.3-36.7,109.7-12.4,162.4c-13.9-28.6-25.7-57.6-37.8-86.5c-6.1-14.5-11.3-28.3,3-42c4.3-4.1,6-11.8,7.2-18.2
	c6.9-36.4,11.3-68.5,11.3-68.5c1.1-31.1,3.2-68.8,5.7-114.4l-6.6,4.9c-48,44.4-42,104.1-42.8,162.5c-7.1-34.6-12.3-69.3-17.7-104
	c-2.3-14.9-1-28.2,13.4-37.3c3-1.9,5-5.9,6.9-9.2c31.6-54,43.8-114.6,58.9-174.7c-58,28.4-67.7,85.1-84,139l11.8-117.3
	c0.2-0.3,0.4-0.6,0.5-0.9l0-0.1l1.6-1.9c16.2-13.4,35.4-24.8,47-41.4c7.1-10.3,51.3-54.9,80.4-129.1l0.6-1.5
	c-55.2,16.9-98.8,59.5-116.9,114.3c-0.2-0.7-0.4-1.3-0.6-2c9.7-39.2,23.1-77.5,40.1-114.1c3.7,2.3,9.4,0.7,20.6-3.8
	c16.4-6.6,31.4-16.1,44.5-27.9c33-30.1,64.4-62.1,96.3-93.5c2.9-2.8,5-6.3,7.5-9.6c-0.7-1.9-1.5-3.8-2.3-5.7
	c-15.5,3.7-32,5.2-46.3,11.6c-33.5,14.9-58.7,40.7-81.2,69.1c-3.7,4.7-8.6,8.5-12.9,12.7c0.6-2.5,1.2-5,1.9-7.5
	c20.3-35.2,43.5-68.7,69.3-100c4.4,2.1,11,2.2,20.7,1.2c6.6-0.6,13.1-2.1,19.3-4.3c55.7-21.2,103.9-55.3,156.8-88.5
	c-35.3-14.3-65.3-5.2-93.2,9.5c-23.4,12.4-45.4,27.5-69.1,43c29.2-30.9,60.8-59.5,94.5-85.5c3.5,2.1,8.7,3.1,16.1,3.2
	c21.8,0.4,44.2-1.5,65.3-6.9c43-10.9,85.2-24.8,132-38.8c-32.9-24.9-65.1-21.1-95.8-13.8c-25.2,6-49.4,15.7-74.6,24.9
	c26.2-17.9,53.3-34.5,81.2-49.7l238.7-67.9C824.5,290.8,738.2,314,671,367.4c-32,17.3-62.9,36.5-92.7,57.3c-1.7,0.6-3.5,1.2-5.2,1.8
	c5.7-5,10.7-9.3,15.5-13.8c59.2-56.1,82.7-64.8,100.5-96.1c6.6-11.6,11.5-24.1,14.8-37c-54,24.2-103,55.5-138.2,104.4
	c-9.5,13.5-16.8,28.4-21.6,44.2c-3.3,10.6-3.5,17.5,0.1,21.6c-33.8,26.1-65.5,54.8-94.8,85.8c-2.8,2.9-5.5,5.9-8.2,8.9l-0.8,0.5
	c5.7-8.4,10-14.7,14.2-21.1c39.9-62.2,59.4-75.8,69.1-108.9c3.9-13.5,5.9-27.5,5.8-41.5l0,0c-51.3,41.8-95.6,89-115.7,154.6
	c-2.2,7.4-3.4,15.1-3.6,22.9c-0.5,12.6,0.5,20,4.9,23.9c-23.3,28.4-44.5,58.5-63.3,90.1c15.8-52.2,42.4-100.9,34.8-157.9
	c-38.6,45.1-67.3,94.9-76,153.7c-2.5,17.1-2.9,35.8,1.7,52.2c2.1,7.8,3.6,12.9,5.7,15.9c-16.4,35.3-29.6,72.1-39.3,109.8
	c-0.5-3.4-0.6-6.9-0.3-10.4c2.9-40.7,6.8-81.3,8.5-122.1c0.5-12.4-5.1-25.1-7.9-37.7c-23.8,41-36.5,83.4-39.6,128.5
	c-2.7,39.2-1.6,77.4,27.1,108.4c0,0.6-0.1,0.9-0.1,1c-0.2,0.7,0.1,1.4,0.6,1.8l2.3-4.8l-3.1,0.9c-0.5,2.1-1.2,4.8-1.9,8.2l-0.4,2.2
	c-1,5.7-11.3,99.4-12.6,111.9c-1.4-11.4-2.2-23.5-4.3-35.4c-6.4-35.8-12.4-71.7-20.3-107.2c-2.4-10.7-10.5-20.1-16-30
	c-12.5,43.8-14,86-7.8,128.4c4.8,32.6,11.3,65.9,36.2,88.8c14.2,13,16.9,26.6,18,43c0.4,6,1.1,12.1,2,18.1
	c4.4,27.6,8.9,55.3,13.3,82.9c-2.4-5.3-6.7-15-11.9-27.3c-24.7-58.3-28.9-79.4-49-109.1c-7.1-10.5-15-20.3-23.7-29.5l-5.1-3.8
	c22,127.7,41.1,170.3,55.8,181.5c2.2,1.7,17.4,14.9,38.2,33.2c4.9,4.3,10.8,8.6,13.2,14.2c13.8,31.9,26.7,64.1,39.9,96.3
	c1.2,2.9,2,5.9,3,8.9c-10.1-11.1-17.7-23.3-26.3-34.8c-30-39.8-36.3-57-58.1-74.5c-11.5-9.2-24.4-16.5-38.1-21.8
	c14.7,47.9,36,92.5,69.2,130.5c20.8,23.8,42.9,46.7,77.7,49.1c2.2,0.2,4.9,2.4,6.3,4.5c23.6,33.1,47.1,66.2,71.8,101
	c-5.2-4.6-9-8.2-13-11.5c-62.8-50.9-72.6-67.7-98.3-78.8c-12.9-5.5-26.5-9.3-40.5-11.1c31,50.2,68.2,94.7,120.9,123.8
	c13.3,7.3,29.4,16.4,43.1,14.8c26.8-3.2,39.6,13.7,55.5,28c3.7,3.3,7.5,6.6,11.4,9.7c21.1,16.8,42.2,33.6,63.3,50.4
	c-6.4-0.9-11.6-3.9-16.9-6.3c-43-19.9-85.8-40.3-129.3-59.1c-9.5-4.1-21.6-2.4-32.5-3.3c39.3,44.1,83.9,77.4,138.8,93.3
	c18.7,5.4,40.7,10.6,58.3,5.5c21-6.1,34,2.1,49.9,10.1c29.9,15.1,60.3,29,94.1,45.2c-7.4-1.3-11.1-1.9-14.7-2.7
	c-39.9-8.8-79.6-18.4-119.7-26.1c-18.7-3.6-38.1-4.9-56.7,5.2c1.9,2.3,2.6,3.9,3.9,4.7c44.7,26.6,92.3,45.4,144.3,50.7
	c25.3,2.6,52,4.2,74-11.1c10.4-7.2,18.4-6.6,28.6-3.6c81.5,23.2,164.8,33.7,249,25.4c53.1-5.2,105.5-17.5,158.3-26.3
	c6.1-1,12.3-0.7,18.2,0.9c24,6.9,41.7,12,48.1,14.8c46.8,21.4,128.6-12.5,175.8-53.5c2.2-1.9,3.9-3.4,5-4.5
	c-66.5-14-126,14.6-186.9,25c37.4-18.9,74.7-37.9,112.2-56.5c3.3-1.7,8-1.2,12-0.8c13,1.5,26.2,5.8,38.9,4.7
	c52.7-4.7,96-31.3,136.7-62.7c13.3-10.3,25.4-22.1,38-33.2c-64.1,6.2-125.5,28.5-178.5,65c32-27.6,65-56.1,98.1-84.3
	c2.6-2.2,7-4.2,10-3.7c22.8,4.4,42.6-4,61.6-14.4c47.9-26.1,83.2-65.3,113.1-110c3.4-5.1,6.7-10.4,11.3-17.7
	c-25.3,0.8-42.4,12-58.7,24.2c-16.8,12.6-33.1,26-49.2,39.5c-15,12.6-29.4,25.9-46.3,40.9c22.4-31,43-59,62.9-87.5
	C1636.5,1436.2,1642.2,1426.1,1657.9,1426.2z"/>
<path class="st0" d="M1001.4,210.3c6,18.3,11,31.7,14.7,45.5c2.5,9.2,7.2,12.3,16.5,11.8c15-0.9,30,0.1,44.7,2.9
	c-10.2,7.4-20,15.5-30.8,22c-11.7,7-15.5,14.8-9.5,28.1c5.1,11.3,7.8,23.8,13,40.5c-11.7-8.4-19.6-13.9-27.3-19.5
	c-21.6-15.7-21.6-15.7-43.9,0.5c-7.5,5.5-15.2,10.9-26.3,18.9c3.9-13.2,6.5-22.6,9.5-31.8c8.3-25.5,8.3-25.5-13.9-41.6
	c-7.6-5.5-15.1-11.1-27.1-20c17.3,0,30.1-0.9,42.8,0.2c13.8,1.2,21.3-3,24.3-17.4C990.7,238,996,226.2,1001.4,210.3z"/>
<polygon class="st1" points="981.8,1655.5 1005.7,1638.6 1031,1653.4 1022.3,1625.4 1044.2,1605.9 1014.9,1605.6 1003.1,1578.8 
	993.7,1606.5 964.6,1609.4 988.1,1626.9 "/>
<polygon class="st1" points="836.2,1612.8 860,1605 876.8,1623.4 876.8,1598.5 899.5,1588.1 875.7,1580.5 872.9,1555.7 
	858.3,1575.9 833.8,1570.9 848.5,1591.1 "/>
<polygon class="st1" points="1180.4,1608.3 1163.6,1589.9 1173.4,1566.9 1150.7,1577.2 1131.9,1560.8 1134.7,1585.6 1113.2,1598.4 
	1137.7,1603.4 1143.2,1627.7 1155.6,1606 "/>
<path class="st0" d="M1066.9,1320.9c9.2-5.8,18.8-10.7,28.8-14.8c14.6-6.2,29-13.1,44.2-18c75.7-24.5,121.5-75.5,141.5-154.6
	c10.7,33.5,9.6,63.3-6.4,91.9s-41,47.9-69.9,61.2c-27.3,12.6-56.2,21.7-84.5,32.1c-47.2,17.3-73.1,53-75.4,103.4
	c-1.4,31.2,6,59.8,23.2,85.8c1.6,2.2,2.8,4.7,3.2,7.4c-30.1-24-48.3-54.6-51.2-93.4c-2.5-34.3,8.9-70.8,35.9-93.3
	C1059.8,1325.9,1063.2,1323.3,1066.9,1320.9z"/>
<path class="st0" d="M957,1341.2c4.4,5,8.1,10.5,11.2,16.4c2.8,5.5,5.1,11.1,6.9,17c5.4,17.7,6.6,36.4,3.7,54.6
	c-2.8,18.5-9.4,36.2-19.4,51.9c-4.2,6.6-9.1,12.9-14.5,18.6c-2.7,2.8-5.5,5.5-8.4,8c-1.5,1.3-3,2.5-4.5,3.7
	c-1.2,0.9-3.9,2.1-4.7,3.4c2.2-3.5,4.5-6.9,6.7-10.5c30.2-48.4,28.4-114.3-6.3-154.1c-10-11.5-24.1-21-38.2-27.2
	c-25.2-11.1-52.2-18.2-77.8-28.4c-29.6-11.7-56-28.8-76.2-53.9c-25.1-31.2-29.1-66.3-17-107.4c2.7,9.2,4.4,15.2,6.3,21.2
	s3.8,12,6.3,17.7c22.4,51,57.6,88.5,110.7,108.6c25.3,9.6,50.6,20.1,75.2,31.4C931.9,1319.1,946.2,1328.7,957,1341.2z"/>
<path class="st0" d="M1114,1328.7c48.1-6.7,90.1-22.4,128.4-47.8c38.6-25.7,66.9-60.3,88.4-102.6
	C1333.1,1274.3,1216,1355.9,1114,1328.7z"/>
<path class="st0" d="M885.3,1328.7c-98.5,29.6-213.4-50.2-216.5-151.4c22,43.4,50.6,78.3,89.6,104.1
	C796.7,1306.7,838.6,1322.1,885.3,1328.7z"/>
<path class="st0" d="M1238.6,1338.7c-40.6,38.5-104.6,35.9-134.1-4.3C1183,1350.3,1183,1350.3,1238.6,1338.7z"/>
<path class="st0" d="M896.6,1332.8c-30.1,41.7-93.8,44.4-136,5.1C807.5,1351.3,851.8,1349.9,896.6,1332.8z"/>
<path class="st0" d="M1183.2,1386.9c-46.6,21.6-89.6,0.5-96.9-46.8C1110.6,1372.7,1142.2,1386.9,1183.2,1386.9z"/>
<path class="st0" d="M913.5,1340.3c-6.5,46.7-49.1,67.8-97.1,46.7C858,1386.8,889.6,1372.7,913.5,1340.3z"/>
<polygon class="st0" points="996.2,589.8 1006.5,616.4 1034.9,618 1012.8,635.9 1020.1,663.5 996.2,648 972.3,663.5 979.5,635.9 
	957.5,618 985.9,616.4 "/>
<polygon class="st0" points="847.8,627.9 863.8,646.1 887,638.9 874.7,659.8 888.7,679.7 865,674.4 850.5,693.8 848.1,669.7 
	825.2,661.9 847.4,652.2 "/>
<polygon class="st0" points="1150.1,625.8 1151.7,650 1174.4,658.5 1151.9,667.6 1150.8,691.8 1135.3,673.2 1111.9,679.6 
	1124.8,659.1 1111.5,638.9 1135,644.8 "/>
<path class="st3" d="M785.9,1574.3c-142.4-55.3-256.2-166-315.5-306.8"/>
<path class="st3" d="M1222.4,1574.3c142.4-55.3,256.2-166,315.5-306.8"/>
<path class="st0" d="M795.4,1117h-55l-60.3-97.3c-8.8-14.6-16.7-29.8-23.4-45.5c3.6,14.2,5.3,26.2,5.3,36.1V1117h-54.9V896.7H671
	l51.3,80.7c10.2,16,17.9,30.1,23.2,42.3c-3.5-19.1-5.2-38.4-5.2-57.8v-65.2h55L795.4,1117z"/>
<path class="st0" d="M901.4,896.7V1117h-67.6V896.7H901.4z"/>
<path class="st0" d="M1194.8,1053.2l62.8-11.3c5.3,17.8,18.8,26.6,40.7,26.6c17,0,25.5-4.5,25.5-13.6c0.1-4.5-2.1-8.6-5.9-11
	c-3.9-2.6-10.9-5-21-7c-38.6-7.4-63.4-17.1-74.4-29c-10.8-11.4-16.7-26.5-16.5-42.2c0-20.8,7.9-38,23.6-51.8
	c15.8-13.8,38.4-20.7,68-20.7c44.9,0,74.5,18,88.9,54l-56,16.9c-5.8-14.7-17.6-22.1-35.3-22.1c-14.7,0-22.1,4.6-22.1,13.7
	c-0.1,3.8,1.8,7.5,5,9.5c3.3,2.3,9.8,4.4,19.4,6.4c26.3,5.6,45.1,10.5,56.2,14.8s20.3,11.6,27.7,22c7.4,10.4,11.1,22.6,11.1,36.7
	c0,22.3-9,40.3-27.1,54.2s-41.8,20.7-71.1,20.8C1240.5,1120.3,1207.4,1098,1194.8,1053.2z"/>
<polygon class="st0" points="1247.8,787.6 1167.2,896.8 1124.2,955 1116.4,965.6 1114,968.8 1105.5,1001.9 1075.7,1116.9 
	1032.8,1116.9 990.4,959.5 990.4,1116.9 939.8,1116.9 939.8,896.8 1028.1,896.8 1060.1,1013.7 1090.5,896.8 1156.4,896.8 "/>
<polygon class="st0" points="1257.1,776.5 1179.2,908.2 1179.2,1116.9 1116.4,1116.9 1116.4,985.4 1136.8,954.7 1175.3,896.8 
	1247.8,787.6 1247.9,787.6 "/>
<path class="st0" d="M1250.4,760.7c2.9-2.7,6.3-2.4,9.6-1.3c5.1,1.7,8.2,0.3,11.7-4.2c7.9-10,17-19.2,25.6-28.7
	c3.8-4.2,7.4-8.6,11.6-12.3c3.1-2.8,6.7-5.1,10.5-6.8c3.2-1.3,4.4,0.2,3.4,3.6c-1.5,4.7-8.4,12.9-8.9,13.4c-3.7,4.1-7.6,8-11.2,12.2
	c-1.2,1.4-1.7,3.2-1.7,5c0.6,5.8,1.7,11.5,2.6,17.2c0.9,5.9,2,11.8,2.6,17.8c0.3,2.5-1.5,8-2,8c-2-3.8-3.9-7.7-5.9-11.5
	c-3.2-6.1-6.4-12.1-9.5-18.2c-1-1.9-2-1.7-3.3-0.4c-3.6,3.4-7.3,6.7-10.7,10.3c-0.9,0.9-0.9,3-0.8,4.5c0.3,2.7,1.3,5.3,1.7,7.9
	c0.2,1.7-0.3,3.5-0.5,5.3l-1,0.3C1271.9,780.3,1255.6,764.8,1250.4,760.7z"/>
<path class="st0" d="M1245.5,730.3c3-0.8,5.3-1.9,7.7-2c3.5,0,7.1,0.2,10.6,0.6c3.8,0.3,7.6,0.7,11.4,1.1l8.3,0.8
	c-3.6,3.9-6.8,7.4-10,10.8c-0.5,0.3-1.1,0.4-1.6,0.1C1263.2,738,1254.6,734.3,1245.5,730.3z"/>
<text transform="matrix(-0.2892 -0.9573 0.9573 -0.2892 480.1697 1247.2805)" class="st1 st4 st5">N</text>
<text transform="matrix(-0.1877 -0.9822 0.9822 -0.1877 462.82 1188.1692)" class="st1 st4 st6">A</text>
<text transform="matrix(-0.1056 -0.9944 0.9944 -0.1056 453.57 1137.7605)" class="st1 st4 st6">T</text>
<text transform="matrix(-3.996804e-02 -0.9992 0.9992 -3.996804e-02 449.4395 1094.8192)" class="st1 st4 st7">I</text>
<text transform="matrix(4.309630e-02 -0.9991 0.9991 4.309630e-02 447.8201 1064.8704)" class="st1 st4 st6">O</text>
<text transform="matrix(0.1545 -0.988 0.988 0.1545 450.87 1002.26)" class="st1 st4 st6">N</text>
<text transform="matrix(0.2589 -0.9659 0.9659 0.2589 460.9089 941.4692)" class="st1 st4 st8">A</text>
<text transform="matrix(0.3415 -0.9399 0.9399 0.3415 475.24 889.6299)" class="st1 st4 st6">L</text>
<text transform="matrix(0.4392 -0.8984 0.8984 0.4392 499.4995 828.4996)" class="st1 st4 st9">I</text>
<text transform="matrix(0.5101 -0.8601 0.8601 0.5101 512.36 801.4108)" class="st1 st4 st10">N</text>
<text transform="matrix(0.5935 -0.8048 0.8048 0.5935 544.6711 748.8694)" class="st1 st4 st11">S</text>
<text transform="matrix(0.6572 -0.7537 0.7537 0.6572 572.0899 712.3304)" class="st1 st4 st6">T</text>
<text transform="matrix(0.7071 -0.7071 0.7071 0.7071 600.7505 680.1101)" class="st1 st4 st12">I</text>
<text transform="matrix(0.7507 -0.6606 0.6606 0.7507 622.0295 658.7304)" class="st1 st4 st13">T</text>
<text transform="matrix(0.8077 -0.5896 0.5896 0.8077 654.1599 630.3802)" class="st1 st4 st6">U</text>
<text transform="matrix(0.8601 -0.5101 0.5101 0.8601 701.3705 596.6905)" class="st1 st4 st10">T</text>
<text transform="matrix(0.8984 -0.4392 0.4392 0.8984 738.2899 574.7593)" class="st1 st4 st9">E</text>
<text transform="matrix(0.9512 -0.3087 0.3087 0.9512 802.49 544.9399)" class="st1 st4 st6">O</text>
<text transform="matrix(0.9772 -0.2122 0.2122 0.9772 862.44 526.23)" class="st1 st4 st6">F</text>
<text transform="matrix(0.9977 -6.801529e-02 6.801529e-02 0.9977 930.25 512.81)" class="st1 st4 st6">M</text>
<text transform="matrix(0.9991 4.152690e-02 -4.152690e-02 0.9991 999.2601 508.87)" class="st1 st4 st6">A</text>
<text transform="matrix(0.9901 0.14 -0.14 0.9901 1052.84 511.1901)" class="st1 st4 st10">N</text>
<text transform="matrix(0.9684 0.2496 -0.2496 0.9684 1113.73 520.6297)" class="st1 st4 st14">A</text>
<text transform="matrix(0.9393 0.3432 -0.3432 0.9393 1165.2599 534.0201)" class="st1 st4 st6">G</text>
<text transform="matrix(0.9022 0.4313 -0.4313 0.9022 1218.26 553.9099)" class="st1 st4 st6">E</text>
<text transform="matrix(0.853 0.5219 -0.5219 0.853 1261.8005 574.4606)" class="st1 st4 st15">M</text>
<text transform="matrix(0.7915 0.6112 -0.6112 0.7915 1320.1798 611.4799)" class="st1 st4 st16">E</text>
<text transform="matrix(0.7265 0.6872 -0.6872 0.7265 1358.3496 640.9799)" class="st1 st4 st6">N</text>
<text transform="matrix(0.6586 0.7525 -0.7525 0.6586 1402.6804 683.92)" class="st1 st4 st6">T</text>
<text transform="matrix(0.557 0.8305 -0.8305 0.557 1444.6703 734.1599)" class="st1 st4 st6">A</text>
<text transform="matrix(0.4673 0.8841 -0.8841 0.4673 1474.4702 778.7599)" class="st1 st4 st6">N</text>
<text transform="matrix(0.3697 0.9292 -0.9292 0.3697 1502.8904 833.3698)" class="st1 st4 st17">D</text>
<text transform="matrix(0.2375 0.9714 -0.9714 0.2375 1530.6202 910.0499)" class="st1 st4 st6">S</text>
<text transform="matrix(0.1482 0.989 -0.989 0.1482 1541.3695 954.34)" class="st1 st4 st6">C</text>
<text transform="matrix(7.184566e-02 0.9974 -0.9974 7.184566e-02 1548.7698 1008.57)" class="st1 st4 st6">I</text>
<text transform="matrix(1.623086e-02 0.9999 -0.9999 1.623086e-02 1550.7296 1038.72)" class="st1 st4 st6">E</text>
<text transform="matrix(-9.654066e-02 0.9953 -0.9953 -9.654066e-02 1551.1594 1086.8199)" class="st1 st4 st6">N</text>
<text transform="matrix(-0.2006 0.9797 -0.9797 -0.2006 1544.7094 1148.0898)" class="st1 st4 st6">C</text>
<text transform="matrix(-0.2892 0.9573 -0.9573 -0.2892 1533.3508 1201.4196)" class="st1 st4 st5">E</text>
</svg>
