<?xml version="1.0" encoding="utf-8"?>
<!-- Generator: Adobe Illustrator 27.3.1, SVG Export Plug-In . SVG Version: 6.00 Build 0)  -->
<svg version="1.1" id="Layer_1" xmlns="http://www.w3.org/2000/svg" xmlns:xlink="http://www.w3.org/1999/xlink" x="0px" y="0px"
	 viewBox="0 0 4300.9 2000" style="enable-background:new 0 0 4300.9 2000;" xml:space="preserve">
<style type="text/css">
	.st0{fill:#EFD24E;}
	.st1{fill:#BE1E2D;}
	.st2{fill:#E3B01F;}
	.st3{fill:none;stroke:#BE1E2D;stroke-width:3;stroke-linecap:round;stroke-miterlimit:10;}
	.st4{font-family:'Arial-BoldMT';}
	.st5{font-size:58.3059px;}
	.st6{font-size:58.1372px;}
	.st7{font-size:58.1382px;}
	.st8{font-size:58.1851px;}
	.st9{font-size:58.1404px;}
	.st10{font-size:58.1391px;}
	.st11{font-size:58.385px;}
	.st12{font-size:58.1397px;}
	.st13{font-size:58.2438px;}
	.st14{font-size:58.1292px;}
	.st15{font-size:57.7901px;}
	.st16{font-size:58.138px;}
	.st17{font-size:58.376px;}
	.st18{font-size:58.0818px;}
	.st19{font-size:58.1389px;}
	.st20{font-size:58.1409px;}
	.st21{font-size:58.1396px;}
	.st22{font-size:58.1365px;}
	.st23{font-size:58.127px;}
	.st24{font-size:58.2403px;}
	.st25{font-size:58.1407px;}
	.st26{font-size:57.9315px;}
	.st27{font-size:58.0292px;}
	.st28{font-size:58.14px;}
	.st29{font-size:58.139px;}
	.st30{font-size:58.1381px;}
	.st31{font-size:58.1387px;}
	.st32{font-size:58.1936px;}
	.st33{font-size:58.1394px;}
	.st34{font-size:58.1411px;}
	.st35{font-size:58.1377px;}
	.st36{font-size:58.1405px;}
	.st37{font-size:58.137px;}
	.st38{font-size:58.1402px;}
	.st39{font-family:'Roboto-Bold';}
	.st40{font-size:393.5795px;}
	.st41{font-size:131.1828px;}
</style>
<g>
	<path class="st0" d="M1291.8,1014.3c0-286.1-231.9-518-518-518s-518,231.9-518,518s231.9,518,518,518S1291.8,1300.4,1291.8,1014.3z
		 M376.1,1014.3c0-219.6,178-397.7,397.7-397.7s397.7,178,397.7,397.7S993.4,1412,773.8,1412S376.1,1234,376.1,1014.3L376.1,1014.3z
		"/>
	<path class="st1" d="M1171.4,1014.3c0,219.6-178,397.7-397.7,397.7s-397.7-178-397.7-397.7s178-397.7,397.7-397.7
		S1171.4,794.7,1171.4,1014.3z"/>
	<path class="st0" d="M1377.2,757.7c-4.7-16.1-11.4-31.7-17.2-47.5c-3.6,4.8-6.6,10.2-8.9,15.8c-2.6,6.4-5.4,16.3-4.4,37.8
		c1.3,27.7,7.3,38.2,9.2,74.9c0.1,1.1,0.1,2,0.2,2.6c-8.2-29.2-18.9-57.5-32.1-84.8c7.8-14,9.4-27.6,7.8-42
		c-5.2-48-26.5-89.2-54.7-127.4c-2.3-3-4.8-5.7-9.9-11.7c0,14.9-2.4,26.4,0.5,36.5c8.9,30.7,19.9,60.8,29.9,91.2
		c0.8,2.6,1.5,5.2,1.9,7.9c-16-26.6-34.2-52-54.2-75.7c5.4-4.1,6.1-13.6,2.5-31c-11.7-57.5-51.3-96.4-96.7-131
		c6.8,53.9,46.3,91.3,72.9,136.2c-0.8-0.1-1.4-0.1-1.9-0.2c-4.5-4.8-9.2-9.6-13.9-14.3c-21.7-21.6-45-41.5-69.5-59.8
		c0,0-11.2-44.8-13.9-53.7c-7.3-24.5-32.9-56.2-115.3-86.8c3.7,21.2,16,34.6,28.6,47.5c12.6,12.8,25.7,24.8,38.9,36.7
		c13.2,12,26.8,23.3,40.2,34.9c-5.5-0.7-10.8-2.3-15.8-4.6c-20.3-13.3-41.7-25.8-64-37.5c-52-46.6-122.1-67.4-191.1-56.9l178.5,53.1
		c21.8,11,42.2,22.4,61.3,34.3c-27.1-11.5-55.2-18.6-85.1-15.9c-11.3,1-22.4,3.1-31.9,15.5c40.1,11.5,77.8,23.2,116.1,32.7
		c14.4,3.6,30,2.6,45,2.7c2,0.1,4-0.2,6-0.9c27.5,20.4,53.2,43,77.2,67.5c-1.3-1-2.6-2-3.9-3.1c-24.9-20.2-51.7-36.9-83.6-43.3
		c-13.1-2.6-26.4-3.9-40.6,5.4c28.3,17.1,55.1,34.1,82.6,49.6c15.1,8.5,30.9,16.6,47.4,21.2c13,3.7,22.1,5.1,27.7,2.7
		c21.6,25.4,40.9,52.6,57.7,81.3c0.1,0.5,0.2,0.9,0.2,1.4c-33.7-32.8-61.4-70.8-114.4-68.3c12.4,24.1,43.4,75.2,103.2,98.8
		c10.6,4.2,21.6,7.3,32.8,9.4c14.1,29.4,25.4,60.1,33.5,91.6c0,1.4,0,2.7,0,4.1c-4-1.5-5.2-1.5-5.5-2.1c-1.9-3.5-3.5-7.1-5.2-10.7
		c-12.6-26.4-27.8-51-51.5-69c-9.7-7.3-20-14.5-36-11.6c34,49.7,52.7,108.4,106.6,141.2c14.7-14.9,20.9-33.1,23-53.7
		C1390.6,817.6,1385.8,787.4,1377.2,757.7z"/>
	<path class="st2" d="M740.7,435.8c-2.4,7.4-4.5,15-7.7,25.7c9-6.5,15.2-10.8,21.2-15.2c18-13.1,18-13.1,35.4-0.4
		c6.3,4.5,12.6,9,22,15.7c-4.2-13.5-6.4-23.6-10.5-32.7c-4.8-10.7-1.8-17,7.7-22.7c8.7-5.2,16.6-11.8,24.9-17.8
		c-11.9-2.3-24.1-3-36.1-2.3c-7.5,0.4-11.4-2.1-13.3-9.5c-3-11.1-7-22-11.9-36.7c-4.4,12.8-8.6,22.4-10.7,32.3
		c-2.4,11.5-8.5,15-19.6,14.1c-10.3-0.9-20.6-0.2-34.6-0.2c9.7,7.2,15.8,11.7,21.9,16.1C747.4,415.2,747.3,415.2,740.7,435.8z"/>
	<path class="st0" d="M1302.5,1321.7c6.1,0.1,12.8-4,18.2-7.8c48.9-33,72.4-82.8,88.6-137.4c-45.9,23.7-66.5,70.2-97.1,107.9
		c0.7-3.3,1.9-6.5,3.2-9.5c9-21.3,18.3-42.6,26.6-64.1c4.4-11.5,6.7-23.6,21.8-26.9c5.1-1.1,9.9-6.1,13.7-10.3
		c39.3-43.8,50.1-97.7,52.8-154.6c-40,35.5-48.4,87.7-68.6,131.9c4.4-32.7,8.8-66.6,13.6-100.5c0.4-2.7,2.1-6.1,4.3-7.5
		c15.3-10.3,24.4-25.7,28.2-42.6c5.7-26,10.3-52.5,12-79c1.3-20.1-2.9-40.5-4.6-60.8c-25,42.1-38.1,90-38.3,138.9
		c-0.3-17.4-1.6-34.7-4.1-51.9c-0.6-4.4-4.1-19.4-7.2-40.3c-0.3-2.3-0.6-4-0.7-5.2c-0.1,0.1-0.2,0.2-0.3,0.2h-0.1l-0.3,0.1
		c-0.1,0.1-0.1,0.2-0.2,0.2c0.2,1.3,0.4,3.2,0.7,5.6c3,23,5,37.1,5.7,42.6c2,15.9,3.1,31.9,3,48c-12-44.1-19.9-89.6-67.1-112.4
		c7,31.2,15.7,62.1,26,92.4c8,23.6,15.9,47.6,36.2,64.5c1.7,1.5,2.9,4.8,2.6,7c-4,32.9-8.2,65.9-12.4,98.8l-4.1-0.4
		c0-19.1,1-38.2-0.2-57.3c-2-27.9-5.3-48.6-21.4-62.3c-5.2-4.4-11.2-7.8-17.7-9.8c3,37.8,4.9,75.7,9.4,113.3
		c1.9,16,7.1,32.3,14.1,46.8c4,8.4,6.2,14.5,2.6,23c-5.4,12.7-9.7,25.8-15,38.6c-5.5,13.2-11.7,26-17.7,38.9
		c-1.3-5.7,0.1-10.3,1.4-14.9c8.4-29,13.6-58.3,6.6-88.4c-2.5-11-5.7-22-17.9-28.8c-5.6,28-12,54.5-15.9,81.4
		c-4.2,29.7-12.8,59.9,1.1,89.5c0.7,1.5,0,4.5-1.1,6.1c-18.6,26.4-37.2,52.6-56,78.9l-3.3-2.2c2.3-3.6,4.5-7.2,6.8-10.8
		c14-23.1,25.2-47.2,29.1-74.2c2.3-15.9,2.9-31.7-9.8-48.4c-16.8,38.9-33.9,75.2-48,112.6c-5.8,15.3-4.9,33-7.8,49.6
		c-0.7,4.3-3.1,9.2-6.3,11.9c-22.9,19.3-46.1,38.2-69.3,57.1c-1.9,1.5-4.5,2.3-6.8,3.6c3.5-5.4,7.8-9.3,11.9-13.4
		c37.4-37.4,51.8-60.6,52.3-85.4c0.2-6.3-0.7-15.9-6.1-27.8c-25.8,35.1-51.9,70.1-77.4,105.5c-4.8,6.7-10.3,15.5-9.9,23
		c1.1,20.9-13.3,26.8-27.6,33.8c-16.1,7.8-32.1,15.7-48.3,23.2c-5.8,2.7-12.1,4.4-18.2,6.6c2.9-4.3,6.7-6.5,10.4-8.8
		c49.8-30,55.2-42.6,64-57.9c4.6-8.1,9.8-20.7,10.3-39.3c-1.1,0.7-3,1.9-5.3,3.3c-37.3,23.7-64.8,50.1-92.2,73.5
		c-10.5,9-18.9,21.6-25,34.2c-3.6,7.3-6.9,11.2-14.2,13.2c-58.4,15.8-117.7,23.7-178.4,22c-46.4-1.3-92.6-7.7-137.7-18.9
		c-13.2-3.3-25.6-5.7-28.6-22.4c-1-5.6-6.1-11-10.5-15.2c-16.1-15.4-32.2-30.9-49.4-45.1c-18.8-15.4-38.8-29.4-59.7-45.1
		c-3.7,19.4,3.9,33.2,13.6,45.2c10.1,12.4,21.4,23.9,33.7,34.2c11.5,9.6,24.6,17.1,37.1,25.5c-0.6,1.1-1.3,2.3-1.9,3.5
		c-28.5-14.4-57.1-28.7-85.5-43.3c-2-1-4.5-3.9-4.5-5.8c0.1-27.6-16.3-47.8-31.2-68.1c-19.2-26.1-40-51-60.1-76.3
		c-3.6,49.7,18.8,97.8,59.3,126.9c-24-17.6-46.8-36.6-69.5-55.5c-8.5-7-15.5-13.8-12-26.8c1.6-6,0.4-13.7-1.9-19.7
		c-14.7-37.2-30-74.3-45.2-111.3c-2.7-6.6-6.5-12.9-9.8-19.3c-14.2,45.5-4.8,95,25,132.1c-20-25.3-38.7-51.6-57.2-77.9
		c-1.1-1.6-1.9-4.5-1.2-6.1c10.9-21.8,7.8-44.6,4.4-67c-5.4-34.5-12.2-68.8-18.4-103.2c-25.8,39-29.6,88.6-10,131.1
		c-11.2-23.1-20.8-46.5-30.5-69.8c-4.9-11.7-9.1-22.9,2.4-33.9c3.5-3.3,4.8-9.5,5.8-14.7c5.6-29.4,9.1-55.3,9.1-55.3
		c0.9-25.1,2.6-55.6,4.6-92.4l-5.3,4c-38.8,35.9-33.9,84.1-34.6,131.2c-5.7-27.9-9.9-56-14.3-84c-1.9-12-0.8-22.8,10.8-30.1
		c2.4-1.5,4-4.8,5.6-7.4c25.5-43.6,35.4-92.5,47.6-141.1c-46.8,22.9-54.7,68.7-67.8,112.2l9.5-94.7c0.2-0.2,0.3-0.5,0.4-0.7V903
		l1.3-1.5c13.1-10.8,28.6-20,38-33.4c5.7-8.3,41.4-44.3,64.9-104.2l0.5-1.2c-44.6,13.6-79.8,48-94.4,92.3c-0.2-0.6-0.3-1-0.5-1.6
		c7.8-31.7,18.7-62.6,32.4-92.1c3,1.9,7.6,0.6,16.6-3.1c13.2-5.3,25.4-13,35.9-22.5c26.6-24.3,52-50.1,77.8-75.5
		c2.3-2.3,4-5.1,6.1-7.8c-0.6-1.5-1.2-3.1-1.9-4.6c-12.5,3-25.8,4.2-37.4,9.4c-27.1,12-47.4,32.9-65.6,55.8
		c-3,3.8-6.9,6.9-10.4,10.3c0.5-2,1-4,1.5-6.1c16.4-28.4,35.1-55.5,56-80.7c3.6,1.7,8.9,1.8,16.7,1c5.3-0.5,10.6-1.7,15.6-3.5
		c45-17.1,83.9-44.7,126.6-71.5c-28.5-11.5-52.7-4.2-75.3,7.7c-18.9,10-36.7,22.2-55.8,34.7c23.6-25,49.1-48,76.3-69
		c2.8,1.7,7,2.5,13,2.6c17.6,0.3,35.7-1.2,52.7-5.6c34.7-8.8,68.8-20,106.6-31.3c-26.6-20.1-52.6-17-77.4-11.1
		c-20.3,4.8-39.9,12.7-60.2,20.1c21.2-14.5,43-27.9,65.6-40.1l192.7-54.8c-68-10.5-137.7,8.2-191.9,51.4
		c-25.8,14-50.8,29.5-74.9,46.3c-1.4,0.5-2.8,1-4.2,1.5c4.6-4,8.6-7.5,12.5-11.1c47.8-45.3,66.8-52.3,81.2-77.6
		c5.3-9.4,9.3-19.5,12-29.9c-43.6,19.5-83.2,44.8-111.6,84.3c-7.7,10.9-13.6,22.9-17.4,35.7c-2.7,8.6-2.8,14.1,0.1,17.4
		c-27.3,21.1-52.9,44.2-76.5,69.3c-2.3,2.3-4.4,4.8-6.6,7.2l-0.6,0.4c4.6-6.8,8.1-11.9,11.5-17c32.2-50.2,48-61.2,55.8-87.9
		c3.1-10.9,4.8-22.2,4.7-33.5l0,0c-41.4,33.8-77.2,71.9-93.4,124.8c-1.8,6-2.7,12.2-2.9,18.5c-0.4,10.2,0.4,16.1,4,19.3
		c-18.8,22.9-35.9,47.2-51.1,72.8c12.8-42.2,34.2-81.5,28.1-127.5c-31.2,36.4-54.3,76.6-61.4,124.1c-2,13.8-2.3,28.9,1.4,42.2
		c1.7,6.3,2.9,10.4,4.6,12.8c-13.2,28.5-23.9,58.2-31.7,88.7c-0.4-2.7-0.5-5.6-0.2-8.4c2.3-32.9,5.5-65.6,6.9-98.6
		c0.4-10-4.1-20.3-6.4-30.4c-19.2,33.1-29.5,67.3-32,103.8c-2.2,31.7-1.3,62.5,21.9,87.5c0,0.5-0.1,0.7-0.1,0.8
		c-0.2,0.6,0.1,1.1,0.5,1.5l1.9-3.9l-2.5,0.7c-0.4,1.7-1,3.9-1.5,6.6l-0.3,1.8c-0.8,4.6-9.1,80.3-10.2,90.4
		c-1.1-9.2-1.8-19-3.5-28.6c-5.2-28.9-10-57.9-16.4-86.6c-1.9-8.6-8.5-16.2-12.9-24.2c-10.1,35.4-11.3,69.4-6.3,103.7
		c3.9,26.3,9.1,53.2,29.2,71.7c11.5,10.5,13.6,21.5,14.5,34.7c0.3,4.8,0.9,9.8,1.6,14.6c3.6,22.3,7.2,44.7,10.7,66.9
		c-1.9-4.3-5.4-12.1-9.6-22c-19.9-47.1-23.3-64.1-39.6-88.1c-5.7-8.5-12.1-16.4-19.1-23.8l-4.1-3.1
		c17.8,103.1,33.2,137.5,45.1,146.6c1.8,1.4,14.1,12,30.8,26.8c4,3.5,8.7,6.9,10.7,11.5c11.1,25.8,21.6,51.8,32.2,77.8
		c1,2.3,1.6,4.8,2.4,7.2c-8.2-9-14.3-18.8-21.2-28.1c-24.2-32.1-29.3-46-46.9-60.2c-9.3-7.4-19.7-13.3-30.8-17.6
		c11.9,38.7,29.1,74.7,55.9,105.4c16.8,19.2,34.6,37.7,62.7,39.6c1.8,0.2,4,1.9,5.1,3.6c19.1,26.7,38,53.5,58,81.6
		c-4.2-3.7-7.3-6.6-10.5-9.3c-50.7-41.1-58.6-54.7-79.4-63.6c-10.4-4.4-21.4-7.5-32.7-9c25,40.5,55.1,76.5,97.6,100
		c10.7,5.9,23.7,13.2,34.8,12c21.6-2.6,32,11.1,44.8,22.6c3,2.7,6.1,5.3,9.2,7.8c17,13.6,34.1,27.1,51.1,40.7
		c-5.2-0.7-9.4-3.1-13.6-5.1c-34.7-16.1-69.3-32.5-104.4-47.7c-7.7-3.3-17.4-1.9-26.2-2.7c31.7,35.6,67.7,62.5,112.1,75.3
		c15.1,4.4,32.9,8.6,47.1,4.4c17-4.9,27.5,1.7,40.3,8.2c24.1,12.2,48.7,23.4,76,36.5c-6-1-9-1.5-11.9-2.2
		c-32.2-7.1-64.3-14.9-96.7-21.1c-15.1-2.9-30.8-4-45.8,4.2c1.5,1.9,2.1,3.1,3.1,3.8c36.1,21.5,74.5,36.7,116.5,40.9
		c20.4,2.1,42,3.4,59.8-9c8.4-5.8,14.9-5.3,23.1-2.9c65.8,18.7,133.1,27.2,201.1,20.5c42.9-4.2,85.2-14.1,127.8-21.2
		c4.9-0.8,9.9-0.6,14.7,0.7c19.4,5.6,33.7,9.7,38.8,12c37.8,17.3,103.8-10.1,142-43.2c1.8-1.5,3.1-2.7,4-3.6
		c-53.7-11.3-101.7,11.8-150.9,20.2c30.2-15.3,60.3-30.6,90.6-45.6c2.7-1.4,6.5-1,9.7-0.6c10.5,1.2,21.2,4.7,31.4,3.8
		c42.6-3.8,77.5-25.3,110.4-50.6c10.7-8.3,20.5-17.8,30.7-26.8c-51.8,5-101.3,23-144.1,52.5c25.8-22.3,52.5-45.3,79.2-68.1
		c2.1-1.8,5.7-3.4,8.1-3c18.4,3.6,34.4-3.2,49.7-11.6c38.7-21.1,67.2-52.7,91.3-88.8c2.7-4.1,5.4-8.4,9.1-14.3
		c-20.4,0.6-34.2,9.7-47.4,19.5c-13.6,10.2-26.7,21-39.7,31.9c-12.1,10.2-23.7,20.9-37.4,33c18.1-25,34.7-47.6,50.8-70.7
		C1285.2,1329.7,1289.8,1321.6,1302.5,1321.7z"/>
	<path class="st0" d="M772.4,339.8c4.8,14.8,8.9,25.6,11.9,36.7c2,7.4,5.8,9.9,13.3,9.5c12.1-0.7,24.2,0.1,36.1,2.3
		c-8.2,6-16.1,12.5-24.9,17.8c-9.4,5.7-12.5,12-7.7,22.7c4.1,9.1,6.3,19.2,10.5,32.7c-9.4-6.8-15.8-11.2-22-15.7
		c-17.4-12.7-17.4-12.7-35.4,0.4c-6.1,4.4-12.3,8.8-21.2,15.3c3.1-10.7,5.2-18.2,7.7-25.7c6.7-20.6,6.7-20.6-11.2-33.6
		c-6.1-4.4-12.2-9-21.9-16.1c14,0,24.3-0.7,34.6,0.2c11.1,1,17.2-2.4,19.6-14.1C763.7,362.2,768,352.7,772.4,339.8z"/>
	<polygon class="st1" points="756.6,1506.8 775.9,1493.2 796.3,1505.1 789.3,1482.5 807,1466.8 783.3,1466.5 773.8,1444.9 
		766.2,1467.2 742.7,1469.6 761.7,1483.7 	"/>
	<polygon class="st1" points="639,1472.3 658.2,1466 671.8,1480.9 671.8,1460.8 690.1,1452.4 670.9,1446.2 668.6,1426.2 
		656.8,1442.5 637.1,1438.5 648.9,1454.8 	"/>
	<polygon class="st1" points="916.9,1468.7 903.4,1453.8 911.3,1435.3 892.9,1443.6 877.8,1430.3 880,1450.4 862.7,1460.7 
		882.4,1464.7 886.9,1484.4 896.9,1466.8 	"/>
	<path class="st0" d="M825.3,1236.6c7.4-4.7,15.2-8.6,23.3-12c11.8-5,23.4-10.6,35.7-14.5c61.1-19.8,98.1-61,114.3-124.8
		c8.6,27.1,7.8,51.1-5.2,74.2c-12.9,23.1-33.1,38.7-56.4,49.4c-22,10.2-45.4,17.5-68.2,25.9c-38.1,14-59,42.8-60.9,83.5
		c-1.1,25.2,4.8,48.3,18.7,69.3c1.3,1.8,2.3,3.8,2.6,6c-24.3-19.4-39-44.1-41.3-75.4c-2-27.7,7.2-57.2,29-75.3
		C819.5,1240.7,822.3,1238.6,825.3,1236.6z"/>
	<path class="st0" d="M736.5,1253c3.6,4,6.5,8.5,9,13.2c2.3,4.4,4.1,9,5.6,13.7c4.4,14.3,5.3,29.4,3,44.1
		c-2.3,14.9-7.6,29.2-15.7,41.9c-3.4,5.3-7.3,10.4-11.7,15c-2.2,2.3-4.4,4.4-6.8,6.5c-1.2,1-2.4,2-3.6,3c-1,0.7-3.1,1.7-3.8,2.7
		c1.8-2.8,3.6-5.6,5.4-8.5c24.4-39.1,22.9-92.3-5.1-124.4c-8.1-9.3-19.5-17-30.8-22c-20.3-9-42.2-14.7-62.8-22.9
		c-23.9-9.4-45.2-23.3-61.5-43.5c-20.3-25.2-23.5-53.5-13.7-86.7c2.2,7.4,3.6,12.3,5.1,17.1c1.5,4.8,3.1,9.7,5.1,14.3
		c18.1,41.2,46.5,71.5,89.4,87.7c20.4,7.8,40.9,16.2,60.7,25.4C716.3,1235.2,727.8,1242.9,736.5,1253z"/>
	<path class="st0" d="M863.3,1242.9c38.8-5.4,72.8-18.1,103.7-38.6c31.2-20.8,54-48.7,71.4-82.8
		C1040.2,1199,945.7,1264.9,863.3,1242.9z"/>
	<path class="st0" d="M678.6,1242.9c-79.5,23.9-172.3-40.5-174.8-122.3c17.8,35,40.9,63.2,72.4,84.1
		C607.1,1225.2,640.9,1237.6,678.6,1242.9z"/>
	<path class="st0" d="M963.9,1251c-32.8,31.1-84.5,29-108.3-3.5C919,1260.4,919,1260.4,963.9,1251z"/>
	<path class="st0" d="M687.8,1246.2c-24.3,33.7-75.7,35.9-109.8,4.1C615.8,1261.2,651.6,1260,687.8,1246.2z"/>
	<path class="st0" d="M919.2,1289.9c-37.6,17.4-72.4,0.4-78.2-37.8C860.6,1278.5,886.1,1289.9,919.2,1289.9z"/>
	<path class="st0" d="M701.4,1252.3c-5.2,37.7-39.6,54.7-78.4,37.7C656.6,1289.8,682.1,1278.5,701.4,1252.3z"/>
	<polygon class="st0" points="768.2,646.3 776.5,667.8 799.4,669 781.6,683.5 787.5,705.8 768.2,693.3 748.9,705.8 754.7,683.5 
		736.9,669 759.9,667.8 	"/>
	<polygon class="st0" points="648.4,677 661.3,691.7 680,685.9 670.1,702.8 681.4,718.9 662.2,714.6 650.5,730.3 648.6,710.8 
		630.1,704.5 648,696.7 	"/>
	<polygon class="st0" points="892.5,675.3 893.8,694.9 912.1,701.7 893.9,709.1 893,728.6 880.5,713.6 861.6,718.8 872,702.2 
		861.3,685.9 880.3,690.7 	"/>
	<path class="st3" d="M598.4,1441.2c-115-44.7-206.9-134-254.8-247.7"/>
	<path class="st3" d="M950.8,1441.2c115-44.7,206.9-134,254.8-247.7"/>
	<path class="st0" d="M606,1072h-44.4l-48.7-78.6c-7.1-11.8-13.5-24.1-18.9-36.7c2.9,11.5,4.3,21.2,4.3,29.2v86.2H454V894.1h51.6
		l41.4,65.2c8.2,12.9,14.5,24.3,18.7,34.2c-2.8-15.4-4.2-31-4.2-46.7v-52.6H606L606,1072z"/>
	<path class="st0" d="M691.6,894.1V1072h-54.6V894.1H691.6z"/>
	<path class="st0" d="M928.6,1020.5l50.7-9.1c4.3,14.4,15.2,21.5,32.9,21.5c13.7,0,20.6-3.6,20.6-11c0.1-3.6-1.7-6.9-4.8-8.9
		c-3.1-2.1-8.8-4-17-5.7c-31.2-6-51.2-13.8-60.1-23.4c-8.7-9.2-13.5-21.4-13.3-34.1c0-16.8,6.4-30.7,19.1-41.8
		c12.8-11.1,31-16.7,54.9-16.7c36.3,0,60.2,14.5,71.8,43.6l-45.2,13.6c-4.7-11.9-14.2-17.8-28.5-17.8c-11.9,0-17.8,3.7-17.8,11.1
		c-0.1,3.1,1.5,6.1,4,7.7c2.7,1.9,7.9,3.6,15.7,5.2c21.2,4.5,36.4,8.5,45.4,12c9,3.5,16.4,9.4,22.4,17.8c6,8.4,9,18.2,9,29.6
		c0,18-7.3,32.5-21.9,43.8s-33.8,16.7-57.4,16.8C965.5,1074.6,938.7,1056.6,928.6,1020.5z"/>
	<polygon class="st0" points="971.4,806 906.3,894.2 871.5,941.2 865.3,949.7 863.3,952.3 856.4,979 832.4,1071.9 797.7,1071.9 
		763.5,944.8 763.5,1071.9 722.6,1071.9 722.6,894.2 793.9,894.2 819.8,988.6 844.3,894.2 897.5,894.2 	"/>
	<polygon class="st0" points="978.9,797 916,903.4 916,1071.9 865.3,1071.9 865.3,965.7 881.7,940.9 912.8,894.2 971.4,806 
		971.4,806 	"/>
	<path class="st0" d="M973.5,784.3c2.3-2.2,5.1-1.9,7.8-1c4.1,1.4,6.6,0.2,9.4-3.4c6.4-8.1,13.7-15.5,20.7-23.2
		c3.1-3.4,6-6.9,9.4-9.9c2.5-2.3,5.4-4.1,8.5-5.5c2.6-1,3.6,0.2,2.7,2.9c-1.2,3.8-6.8,10.4-7.2,10.8c-3,3.3-6.1,6.5-9,9.9
		c-1,1.1-1.4,2.6-1.4,4c0.5,4.7,1.4,9.3,2.1,13.9c0.7,4.8,1.6,9.5,2.1,14.4c0.2,2-1.2,6.5-1.6,6.5c-1.6-3.1-3.1-6.2-4.8-9.3
		c-2.6-4.9-5.2-9.8-7.7-14.7c-0.8-1.5-1.6-1.4-2.7-0.3c-2.9,2.7-5.9,5.4-8.6,8.3c-0.7,0.7-0.7,2.4-0.6,3.6c0.2,2.2,1,4.3,1.4,6.4
		c0.2,1.4-0.2,2.8-0.4,4.3l-0.8,0.2C990.8,800.1,977.7,787.6,973.5,784.3z"/>
	<path class="st0" d="M969.5,759.7c2.4-0.6,4.3-1.5,6.2-1.6c2.8,0,5.7,0.2,8.6,0.5c3.1,0.2,6.1,0.6,9.2,0.9l6.7,0.6
		c-2.9,3.1-5.5,6-8.1,8.7c-0.4,0.2-0.9,0.3-1.3,0.1C983.8,765.9,976.8,763,969.5,759.7z"/>
	<text transform="matrix(-0.2892 -0.9573 0.9573 -0.2892 351.5062 1177.1794)" class="st1 st4 st5">N</text>
	<text transform="matrix(-0.1877 -0.9822 0.9822 -0.1877 337.4958 1129.4442)" class="st1 st4 st6">A</text>
	<text transform="matrix(-0.1056 -0.9944 0.9944 -0.1056 330.0291 1088.7416)" class="st1 st4 st7">T</text>
	<text transform="matrix(-3.996808e-02 -0.9992 0.9992 -3.996808e-02 326.692 1054.0656)" class="st1 st4 st8">I</text>
	<text transform="matrix(4.309505e-02 -0.9991 0.9991 4.309505e-02 325.3861 1029.8853)" class="st1 st4 st9">O</text>
	<text transform="matrix(0.1545 -0.988 0.988 0.1545 327.8464 979.3271)" class="st1 st4 st10">N</text>
	<text transform="matrix(0.2589 -0.9659 0.9659 0.2589 335.9541 930.2395)" class="st1 st4 st11">A</text>
	<text transform="matrix(0.3415 -0.9399 0.9399 0.3415 347.5266 888.3811)" class="st1 st4 st12">L</text>
	<text transform="matrix(0.4392 -0.8984 0.8984 0.4392 367.1146 839.0174)" class="st1 st4 st13">I</text>
	<text transform="matrix(0.5101 -0.8601 0.8601 0.5101 377.5002 817.1456)" class="st1 st4 st14">N</text>
	<text transform="matrix(0.5935 -0.8048 0.8048 0.5935 403.5911 774.7184)" class="st1 st4 st15">S</text>
	<text transform="matrix(0.6572 -0.7537 0.7537 0.6572 425.7313 745.2156)" class="st1 st4 st16">T</text>
	<text transform="matrix(0.7071 -0.7071 0.7071 0.7071 448.8723 719.1953)" class="st1 st4 st17">I</text>
	<text transform="matrix(0.7507 -0.6606 0.6606 0.7507 466.0569 701.9349)" class="st1 st4 st18">T</text>
	<text transform="matrix(0.8077 -0.5896 0.5896 0.8077 491.9997 679.0415)" class="st1 st4 st19">U</text>
	<text transform="matrix(0.8601 -0.5101 0.5101 0.8601 530.121 651.8369)" class="st1 st4 st14">T</text>
	<text transform="matrix(0.8984 -0.4392 0.4392 0.8984 559.9326 634.1268)" class="st1 st4 st13">E</text>
	<text transform="matrix(0.9512 -0.3087 0.3087 0.9512 611.775 610.0513)" class="st1 st4 st20">O</text>
	<text transform="matrix(0.9772 -0.2122 0.2122 0.9772 660.1816 594.9422)" class="st1 st4 st6">F</text>
	<text transform="matrix(0.9977 -6.801423e-02 6.801423e-02 0.9977 714.9399 584.1082)" class="st1 st4 st21">M</text>
	<text transform="matrix(0.9991 4.152845e-02 -4.152845e-02 0.9991 770.6617 580.9242)" class="st1 st4 st22">A</text>
	<text transform="matrix(0.9902 0.14 -0.14 0.9902 813.9278 582.7991)" class="st1 st4 st23">N</text>
	<text transform="matrix(0.9684 0.2496 -0.2496 0.9684 863.0927 590.4182)" class="st1 st4 st24">A</text>
	<text transform="matrix(0.9393 0.3432 -0.3432 0.9393 904.704 601.2326)" class="st1 st4 st25">G</text>
	<text transform="matrix(0.9022 0.4313 -0.4313 0.9022 947.5005 617.293)" class="st1 st4 st7">E</text>
	<text transform="matrix(0.853 0.5219 -0.5219 0.853 982.6588 633.8867)" class="st1 st4 st26">M</text>
	<text transform="matrix(0.7915 0.6112 -0.6112 0.7915 1029.7961 663.7777)" class="st1 st4 st27">E</text>
	<text transform="matrix(0.7265 0.6872 -0.6872 0.7265 1060.6207 687.6)" class="st1 st4 st28">N</text>
	<text transform="matrix(0.6586 0.7525 -0.7525 0.6586 1096.4175 722.2742)" class="st1 st4 st29">T</text>
	<text transform="matrix(0.557 0.8305 -0.8305 0.557 1130.3225 762.8411)" class="st1 st4 st30">A</text>
	<text transform="matrix(0.4673 0.8841 -0.8841 0.4673 1154.3845 798.8515)" class="st1 st4 st31">N</text>
	<text transform="matrix(0.3697 0.9292 -0.9292 0.3697 1177.3345 842.9519)" class="st1 st4 st32">D</text>
	<text transform="matrix(0.2375 0.9714 -0.9714 0.2375 1199.7246 904.8688)" class="st1 st4 st33">S</text>
	<text transform="matrix(0.1482 0.989 -0.989 0.1482 1208.4064 940.6337)" class="st1 st4 st34">C</text>
	<text transform="matrix(7.184679e-02 0.9974 -0.9974 7.184679e-02 1214.3804 984.4225)" class="st1 st4 st35">I</text>
	<text transform="matrix(1.623035e-02 0.9999 -0.9999 1.623035e-02 1215.9626 1008.7684)" class="st1 st4 st36">E</text>
	<text transform="matrix(-9.654345e-02 0.9953 -0.9953 -9.654345e-02 1216.3116 1047.6091)" class="st1 st4 st37">N</text>
	<text transform="matrix(-0.2006 0.9797 -0.9797 -0.2006 1211.1047 1097.0823)" class="st1 st4 st38">C</text>
	<text transform="matrix(-0.2892 0.9573 -0.9573 -0.2892 1201.9332 1140.1455)" class="st1 st4 st5">E</text>
</g>
<g>
	<text transform="matrix(1 0 0 1 1932.167 1024.2949)" class="st1 st39 st40">NATIONAL</text>
	<text transform="matrix(1 0 0 1 1569.8867 1231.7891)" class="st1 st39 st41">INSTITUTE OF MANAGEMENT AND SCIENCE</text>
</g>
</svg>
