<svg id="Layer_1" data-name="Layer 1" xmlns="http://www.w3.org/2000/svg" viewBox="0 0 1633.67 1579.33"><defs><style>.cls-1{fill:#efd24e;}.cls-10,.cls-11,.cls-12,.cls-13,.cls-14,.cls-15,.cls-2,.cls-4,.cls-5,.cls-6,.cls-7,.cls-8,.cls-9{fill:#be1e2d;}.cls-3{fill:none;stroke:#be1e2d;stroke-linecap:round;stroke-miterlimit:10;stroke-width:3px;}.cls-10,.cls-11,.cls-12,.cls-13,.cls-14,.cls-15,.cls-4,.cls-5,.cls-6,.cls-7,.cls-8,.cls-9{isolation:isolate;font-family:Arial-BoldMT, Arial;font-weight:700;}.cls-4{font-size:72.12px;}.cls-5{font-size:72.09px;letter-spacing:-0.04em;}.cls-6,.cls-7,.cls-8{font-size:72px;}.cls-7{letter-spacing:-0.04em;}.cls-8{letter-spacing:-0.02em;}.cls-9{font-size:71.89px;}.cls-10{font-size:71.9px;}.cls-11{font-size:72px;}.cls-12{font-size:71.87px;}.cls-13{font-size:72.32px;letter-spacing:-0.04em;}.cls-14{font-size:71.95px;}.cls-15{font-size:71.8px;}</style></defs><path class="cls-1" d="M1002,157.05c6,18.29,11,31.72,14.7,45.5,2.48,9.19,7.23,12.28,16.54,11.83a185.88,185.88,0,0,1,44.74,2.85c-10.23,7.4-20,15.5-30.82,22-11.71,7.06-15.49,14.84-9.47,28.12,5.13,11.33,7.78,23.79,13,40.53-11.74-8.35-19.59-13.84-27.34-19.48-21.6-15.71-21.57-15.72-43.89.47-7.55,5.48-15.17,10.85-26.35,18.84,3.95-13.25,6.54-22.61,9.52-31.85,8.26-25.52,8.31-25.48-13.89-41.64-7.58-5.52-15.1-11.12-27.14-20,17.29,0,30.14-.88,42.81.24,13.82,1.23,21.33-3,24.29-17.35C991.22,184.76,996.53,173,1002,157.05Z" transform="translate(-188.26 -157.04)"/><path class="cls-1" d="M1650.35,992.34c0-354.31-287.22-641.51-641.5-641.51S367.31,638,367.31,992.34s287.23,641.5,641.54,641.5S1650.35,1346.65,1650.35,992.34Zm-1134,0c0-272,220.51-492.51,492.54-492.51s492.5,220.51,492.5,492.51-220.51,492.5-492.5,492.5-492.58-220.51-492.58-492.5Z" transform="translate(-188.26 -157.04)"/><path class="cls-2" d="M1501.34,992.32c0,272-220.51,492.54-492.51,492.54s-492.5-220.51-492.5-492.54,220.51-492.5,492.5-492.5S1501.34,720.33,1501.34,992.32Z" transform="translate(-188.26 -157.04)"/><path class="cls-1" d="M1756.15,674.56c-5.76-20-14.1-39.23-21.28-58.81a87,87,0,0,0-11,19.63c-3.16,7.9-6.7,20.19-5.45,46.83,1.61,34.29,9,47.34,11.39,92.64.08,1.38.13,2.5.16,3.22a631.62,631.62,0,0,0-39.67-105c9.73-17.31,11.6-34.18,9.65-52-6.5-59.49-32.77-110.48-67.69-157.76-2.75-3.73-6-7.08-12.35-14.48,0,18.36-3,32.72.57,45.16,11,38,24.68,75.28,37,112.93a74.84,74.84,0,0,1,2.38,9.8,724.93,724.93,0,0,0-67.11-93.84c6.67-5.07,7.46-16.89,3.08-38.41-14.52-71.22-63.52-119.42-119.73-162.24,8.45,66.83,57.28,113.09,90.35,168.67-1-.09-1.73-.14-2.39-.16q-8.46-9-17.25-17.72a810.93,810.93,0,0,0-86.16-74.15s-13.87-55.5-17.17-66.55c-9-30.28-40.85-69.61-142.78-107.46,4.64,26.32,19.84,42.91,35.39,58.82s31.84,30.69,48.25,45.5,33.19,28.85,49.81,43.23a68.22,68.22,0,0,1-19.56-5.73q-37.86-24.72-79.27-46.37a289.45,289.45,0,0,0-236.7-70.5l221,65.81q40.56,20.38,75.92,42.52c-33.53-14.2-68.26-22.95-105.42-19.68-14,1.22-27.75,3.81-39.46,19.16,49.55,14.16,96.34,28.67,143.81,40.51,17.76,4.43,37.08,3.23,55.7,3.43a21.23,21.23,0,0,0,7.37-1.13A813.66,813.66,0,0,1,1553.11,484c-1.6-1.27-3.21-2.53-4.79-3.82-30.8-25-63.94-45.67-103.48-53.56-16.21-3.23-32.74-4.75-50.27,6.74,35.12,21.21,68.2,42.18,102.29,61.38,18.65,10.51,38.27,20.53,58.71,26.34,16.09,4.58,27.38,6.31,34.35,3.42a721.47,721.47,0,0,1,71.51,100.74c.11.56.22,1.13.34,1.69-41.68-40.58-76.06-87.67-141.68-84.61,15.45,29.94,53.85,93.06,127.75,122.27a214.52,214.52,0,0,0,40.6,11.57,619.5,619.5,0,0,1,41.46,113.44v5.13c-5-1.8-6.49-1.87-6.86-2.56-2.29-4.35-4.33-8.83-6.45-13.27-15.62-32.72-34.37-63.25-63.83-85.49-12-9.09-24.75-18-44.59-14.42,42.08,61.54,65.33,134.26,132,174.92,18.25-18.42,25.88-41,28.52-66.54C1772.66,748.71,1766.76,711.33,1756.15,674.56Z" transform="translate(-188.26 -157.04)"/><path class="cls-1" d="M967.8,275.85c-3,9.24-5.57,18.6-9.52,31.85,11.18-8,18.8-13.36,26.35-18.84,22.32-16.19,22.29-16.18,43.89-.47,7.75,5.64,15.6,11.13,27.34,19.48-5.24-16.74-7.89-29.2-13-40.53-6-13.28-2.24-21.06,9.47-28.12,10.78-6.49,20.59-14.59,30.82-22a185.88,185.88,0,0,0-44.74-2.85c-9.31.45-14.06-2.64-16.54-11.83-3.71-13.78-8.71-27.21-14.7-45.5-5.42,15.94-10.73,27.71-13.28,40-3,14.35-10.47,18.58-24.29,17.35-12.67-1.12-25.52-.24-42.81-.24,12,8.89,19.56,14.49,27.14,20C976.11,250.37,976.06,250.33,967.8,275.85Z" transform="translate(-188.26 -157.04)"/><path class="cls-1" d="M1663.58,1373c7.52.07,15.83-5,22.56-9.57,60.5-40.92,89.57-102.47,109.75-170.09-56.92,29.37-82.44,86.91-120.34,133.61a59,59,0,0,1,4-11.84c11.08-26.45,22.69-52.69,33-79.44,5.52-14.34,8.26-29.25,27-33.28,6.33-1.36,12.31-7.53,17-12.77,48.7-54.33,62.13-121,65.38-191.55-49.49,44-60,108.55-85,163.39,5.41-40.52,10.93-82.51,16.79-124.44.47-3.35,2.61-7.51,5.3-9.33,19-12.84,30.22-31.79,34.87-52.85,7.1-32.17,12.83-65,14.87-97.82,1.55-24.87-3.55-50.16-5.69-75.26a338.9,338.9,0,0,0-47.46,172,518.75,518.75,0,0,0-5.06-64.33c-.79-5.39-5.1-24-8.93-49.93-.41-2.76-.73-5-.94-6.55a.54.54,0,0,1-.42.16h-.11l-.41.08c-.07.1-.13.2-.19.3.2,1.59.5,4,.88,6.89,3.67,28.49,6.18,46,7.1,52.85a456.92,456.92,0,0,1,3.69,59.38c-14.81-54.58-24.55-111-83.06-139.25a1091.22,1091.22,0,0,0,32.21,114.45c9.9,29.19,19.7,58.9,44.83,79.87,2.1,1.75,3.57,5.9,3.23,8.68-4.93,40.82-10.21,81.59-15.41,122.38l-5.1-.54c0-23.63,1.33-47.36-.34-70.87-2.46-34.54-6.64-60.14-26.51-77.2a63.34,63.34,0,0,0-21.93-12.1c3.67,46.8,6.13,93.75,11.58,140.34,2.32,19.85,8.81,40,17.44,58,5,10.37,7.7,18,3.23,28.53-6.65,15.74-12,32-18.58,47.78-6.83,16.26-14.54,32.16-21.86,48.23-1.61-7,.07-12.69,1.71-18.39,10.39-35.93,16.9-72.25,8.25-109.52-3.14-13.55-7.08-27.23-22.2-35.64-6.92,34.73-15,67.54-19.68,100.82-5.23,36.8-15.9,74.16,1.46,110.93.9,1.91,0,5.59-1.38,7.53q-34.48,49-69.34,97.65l-4.06-2.74c2.79-4.48,5.63-8.93,8.37-13.44,17.32-28.56,31.24-58.52,36-91.94,2.79-19.68,3.61-39.27-12.13-60-20.83,48.16-42,93.11-59.48,139.44-7.16,19-6.09,40.94-9.6,61.4-.9,5.27-3.8,11.38-7.77,14.74-28.29,23.93-57.06,47.27-85.78,70.67-2.39,1.95-5.55,2.94-8.36,4.38,4.26-6.73,9.62-11.53,14.69-16.62,46.26-46.34,64.14-75,64.77-105.84.16-7.82-.88-19.71-7.51-34.38-32,43.53-64.3,86.85-95.79,130.75-6,8.34-12.78,19.18-12.27,28.49,1.44,25.89-16.54,33.14-34.25,41.75-19.87,9.67-39.73,19.39-59.78,28.66-7.24,3.35-15,5.49-22.58,8.18,3.6-5.34,8.29-8.08,13-10.89,61.71-37.25,68.4-52.79,79.29-71.73,5.73-10,12.14-25.59,12.74-48.73-1.39.86-3.72,2.31-6.57,4.12-46.17,29.28-80.22,62-114.16,91-13,11.12-23.45,26.76-31,42.31-4.42,9.1-8.52,13.87-17.64,16.34-72.34,19.58-145.76,29.36-220.87,27.29A794.75,794.75,0,0,1,818.56,1704c-16.38-4.07-31.73-7-35.37-27.81-1.2-6.88-7.53-13.63-13-18.86-20-19-39.9-38.33-61.21-55.85-23.29-19.14-48.11-36.43-73.9-55.76-4.57,24,4.83,41.07,16.89,56a315,315,0,0,0,41.74,42.41c14.15,11.92,30.54,21.18,45.94,31.6l-2.4,4.36c-35.33-17.81-70.69-35.55-105.89-53.59-2.51-1.28-5.57-4.75-5.57-7.19.12-34.15-20.18-59.17-38.71-84.34-23.75-32.27-49.5-63.07-74.39-94.49a177.28,177.28,0,0,0,73.46,157.06c-29.73-21.78-57.88-45.28-86.13-68.65-10.47-8.67-19.23-17.11-14.85-33.25,2-7.44.54-17-2.38-24.4-18.17-46.13-37.09-92-56-137.79-3.41-8.24-8.06-16-12.14-23.94A176.77,176.77,0,0,0,445.53,1473c-24.85-31.35-47.93-63.88-70.81-96.54-1.37-2-2.37-5.64-1.45-7.48,13.53-27,9.73-55.25,5.4-83-6.67-42.74-15.09-85.21-22.76-127.8a167.22,167.22,0,0,0-12.4,162.36c-13.89-28.55-25.72-57.56-37.77-86.48-6.06-14.54-11.33-28.33,3-42,4.33-4.12,6-11.83,7.25-18.22,6.85-36.36,11.34-68.53,11.34-68.53,1.07-31.13,3.18-68.79,5.7-114.43l-6.58,4.91c-48,44.38-42,104.07-42.81,162.5-7.14-34.59-12.34-69.3-17.66-104-2.28-14.91-1-28.23,13.35-37.34,3.05-1.93,5-5.89,6.94-9.21,31.59-54,43.83-114.58,58.89-174.68-58,28.35-67.68,85.08-84,139L273,854.86c.18-.31.36-.61.51-.92v-.07l1.59-2c16.19-13.43,35.39-24.77,47-41.42,7.12-10.25,51.34-54.94,80.42-129.14l.6-1.54A177.93,177.93,0,0,0,286.31,794.14c-.23-.67-.43-1.32-.62-2A633,633,0,0,1,325.82,678c3.69,2.35,9.38.67,20.58-3.85a151,151,0,0,0,44.52-27.91c33-30.15,64.39-62.12,96.32-93.47,2.87-2.82,5-6.36,7.54-9.56-.75-1.9-1.5-3.81-2.26-5.71-15.49,3.73-32,5.24-46.27,11.62-33.54,14.94-58.67,40.73-81.25,69.13-3.72,4.67-8.56,8.46-12.88,12.66.58-2.51,1.21-5,1.87-7.49a730.05,730.05,0,0,1,69.31-100c4.4,2.11,11,2.24,20.67,1.15a79.62,79.62,0,0,0,19.34-4.3C519,499.17,567.25,465,620.15,431.86c-35.31-14.33-65.35-5.23-93.24,9.46-23.43,12.34-45.36,27.54-69.12,43a823.46,823.46,0,0,1,94.49-85.62c3.45,2.11,8.71,3.08,16.08,3.21,21.76.39,44.24-1.53,65.28-6.88,43-10.91,85.15-24.8,132-38.75-32.92-24.87-65.14-21.14-95.84-13.76-25.15,6-49.43,15.68-74.57,24.9a948.67,948.67,0,0,1,81.21-49.68l238.69-67.85a311.16,311.16,0,0,0-238.44,64.29,960.12,960.12,0,0,0-92.7,57.3c-1.73.61-3.47,1.23-5.22,1.83,5.69-5.06,10.73-9.3,15.5-13.82,59.26-56.13,82.74-64.81,100.47-96.05a150,150,0,0,0,14.82-37c-54,24.24-103,55.55-138.24,104.45a155.35,155.35,0,0,0-21.61,44.16c-3.3,10.61-3.55,17.47.1,21.61A819.42,819.42,0,0,0,455,482.47q-4.15,4.42-8.23,8.9l-.84.54c5.66-8.43,10-14.7,14.16-21.13C500,408.54,519.5,395,529.23,361.84A146,146,0,0,0,535,320.3h0c-51.33,41.76-95.58,89-115.71,154.56a92.21,92.21,0,0,0-3.59,22.86c-.55,12.59.52,20,4.86,23.94a733.4,733.4,0,0,0-63.31,90.12c15.78-52.23,42.37-100.87,34.81-157.86-38.58,45.12-67.26,94.87-76,153.72-2.51,17.06-2.85,35.83,1.67,52.2,2.14,7.76,3.64,12.92,5.73,15.93a642.65,642.65,0,0,0-39.33,109.82,48.79,48.79,0,0,1-.3-10.39c2.9-40.69,6.8-81.34,8.45-122.08.5-12.43-5.09-25.1-7.89-37.65-23.79,41-36.48,83.41-39.56,128.51-2.68,39.18-1.56,77.39,27.14,108.42a9.88,9.88,0,0,1-.06,1,1.78,1.78,0,0,0,.65,1.82l2.31-4.77-3.13.92c-.55,2.06-1.22,4.84-1.85,8.16,0,0-.2,1.1-.39,2.22-1,5.74-11.29,99.43-12.66,111.88-1.35-11.43-2.2-23.54-4.31-35.42-6.35-35.83-12.41-71.75-20.33-107.24-2.38-10.67-10.49-20.07-16-30-12.63,43.82-14.09,86.06-7.87,128.47,4.78,32.58,11.28,65.91,36.24,88.83,14.22,13.06,16.93,26.59,18,43,.39,6,1.1,12.09,2,18.08,4.37,27.64,8.88,55.26,13.33,82.88-2.37-5.28-6.69-15-11.88-27.29-24.66-58.3-28.91-79.44-49-109.15a235.43,235.43,0,0,0-23.66-29.49l-5.1-3.78c22,127.65,41.08,170.34,55.84,181.45,2.23,1.68,17.37,15,38.24,33.24,4.88,4.28,10.79,8.63,13.23,14.25,13.81,31.86,26.72,64.12,39.89,96.26,1.18,2.88,2,5.91,3,8.87-10.13-11.08-17.68-23.32-26.29-34.76-29.95-39.76-36.27-57-58.12-74.49A145.25,145.25,0,0,0,216,1195.4c14.68,47.89,36,92.5,69.19,130.53,20.78,23.81,42.92,46.69,77.71,49.06,2.23.15,4.89,2.45,6.33,4.47,23.62,33.06,47.07,66.23,71.75,101-5.19-4.61-9-8.2-13-11.47-62.81-50.94-72.65-67.71-98.28-78.82a152.42,152.42,0,0,0-40.46-11.08c31,50.24,68.24,94.72,120.93,123.84,13.29,7.34,29.42,16.38,43.06,14.75,26.8-3.2,39.63,13.72,55.5,28,3.7,3.34,7.48,6.59,11.37,9.7q31.6,25.26,63.29,50.42c-6.42-1-11.57-3.87-16.93-6.35-43-19.91-85.83-40.33-129.33-59.12-9.54-4.13-21.62-2.39-32.52-3.36,39.31,44.15,83.85,77.41,138.8,93.33,18.67,5.41,40.75,10.57,58.28,5.5,21-6.06,34,2.1,49.86,10.14,29.87,15.1,60.33,29,94.13,45.16-7.43-1.34-11.1-1.89-14.73-2.68-39.89-8.8-79.62-18.38-119.71-26.13-18.66-3.61-38.13-4.86-56.74,5.2,1.86,2.27,2.64,3.93,3.94,4.71,44.7,26.57,92.34,45.38,144.32,50.71,25.3,2.6,52,4.16,74-11.13,10.44-7.24,18.37-6.55,28.62-3.63,81.48,23.22,164.74,33.71,249,25.4,53.11-5.23,105.51-17.53,158.29-26.3a42.6,42.6,0,0,1,18.18.88c24,6.87,41.75,12,48.07,14.85,46.77,21.39,128.62-12.52,175.81-53.51,2.15-1.86,3.88-3.44,5-4.47-66.52-14-126,14.63-186.93,25,37.41-18.91,74.73-37.92,112.25-56.53,3.33-1.65,8-1.22,12-.78,13,1.46,26.2,5.79,38.93,4.67,52.74-4.66,96-31.33,136.68-62.72,13.29-10.27,25.37-22.11,38-33.24a379.42,379.42,0,0,0-178.53,65c32-27.6,65-56.06,98.1-84.27,2.6-2.21,7-4.24,10-3.65,22.82,4.42,42.6-4,61.63-14.4,47.86-26.11,83.19-65.34,113.06-110,3.43-5.12,6.67-10.38,11.32-17.66-25.26.76-42.38,12-58.73,24.15-16.85,12.55-33.09,25.94-49.17,39.48-15,12.62-29.44,25.92-46.35,40.88,22.37-31,43-59,62.89-87.51C1642.25,1382.94,1647.91,1372.82,1663.58,1373Z" transform="translate(-188.26 -157.04)"/><polygon class="cls-2" points="799.26 1445.22 823.18 1428.28 848.46 1443.09 839.75 1415.11 861.64 1395.64 832.34 1395.29 820.59 1368.44 811.19 1396.2 782.03 1399.09 805.53 1416.59 799.26 1445.22"/><polygon class="cls-2" points="653.7 1402.51 677.42 1394.72 694.29 1413.12 694.21 1388.16 716.92 1377.79 693.15 1370.16 690.32 1345.36 675.71 1365.6 651.25 1360.63 665.98 1380.78 653.7 1402.51"/><polygon class="cls-2" points="997.86 1397.97 981 1379.56 990.83 1356.61 968.11 1366.95 949.33 1350.51 952.14 1375.32 930.7 1388.1 955.16 1393.09 960.69 1417.43 973 1395.71 997.86 1397.97"/><path class="cls-1" d="M1072.59,1267.66a185.6,185.6,0,0,1,28.84-14.82c14.63-6.21,29-13.14,44.17-18,75.65-24.52,121.5-75.53,141.52-154.55,10.73,33.47,9.61,63.31-6.37,92s-41.06,47.9-69.9,61.18c-27.29,12.57-56.19,21.68-84.48,32.08-47.17,17.33-73.1,53-75.43,103.41-1.44,31.19,6,59.79,23.24,85.83a17.52,17.52,0,0,1,3.23,7.42c-30.07-24-48.31-54.59-51.16-93.42-2.53-34.34,8.94-70.85,35.9-93.36A108.25,108.25,0,0,1,1072.59,1267.66Z" transform="translate(-188.26 -157.04)"/><path class="cls-1" d="M962.67,1288a83.44,83.44,0,0,1,11.15,16.41,105.15,105.15,0,0,1,6.87,17,122.23,122.23,0,0,1,3.73,54.62A134.39,134.39,0,0,1,965,1427.88a122.73,122.73,0,0,1-14.49,18.57,113.56,113.56,0,0,1-8.42,8c-1.47,1.26-3,2.49-4.51,3.67-1.24,1-3.88,2.15-4.71,3.43,2.25-3.48,4.54-7,6.73-10.47,30.19-48.36,28.36-114.34-6.33-154.13-10-11.52-24.1-21-38.18-27.2-25.23-11.09-52.16-18.22-77.83-28.4-29.57-11.74-56-28.77-76.18-53.87-25.1-31.23-29.07-66.33-17-107.41,2.74,9.22,4.4,15.24,6.33,21.18s3.81,12,6.33,17.73c22.38,51,57.64,88.5,110.73,108.59,25.32,9.58,50.59,20.12,75.19,31.4C937.62,1265.86,951.86,1275.44,962.67,1288Z" transform="translate(-188.26 -157.04)"/><path class="cls-1" d="M1119.66,1275.44c48.12-6.68,90.09-22.35,128.41-47.83,38.61-25.68,66.92-60.27,88.42-102.59C1338.76,1221.05,1221.7,1302.61,1119.66,1275.44Z" transform="translate(-188.26 -157.04)"/><path class="cls-1" d="M891,1275.39C792.55,1305,677.65,1225.24,674.49,1124c22,43.43,50.6,78.32,89.62,104.09C802.39,1253.4,844.35,1268.88,891,1275.39Z" transform="translate(-188.26 -157.04)"/><path class="cls-1" d="M1244.31,1285.41c-40.6,38.48-104.61,35.88-134.1-4.35C1188.72,1297.06,1188.72,1297.06,1244.31,1285.41Z" transform="translate(-188.26 -157.04)"/><path class="cls-1" d="M902.32,1279.52c-30.1,41.75-93.81,44.43-136.06,5.14C813.19,1298,857.53,1296.64,902.32,1279.52Z" transform="translate(-188.26 -157.04)"/><path class="cls-1" d="M1189,1333.67c-46.58,21.59-89.61.46-96.88-46.76C1116.26,1319.43,1147.87,1333.62,1189,1333.67Z" transform="translate(-188.26 -157.04)"/><path class="cls-1" d="M919.26,1287c-6.52,46.73-49.11,67.82-97.11,46.65C863.67,1333.58,895.3,1319.48,919.26,1287Z" transform="translate(-188.26 -157.04)"/><polygon class="cls-1" points="813.64 379.52 823.93 406.07 852.36 407.64 830.28 425.63 837.57 453.16 813.64 437.72 789.72 453.16 797 425.63 774.93 407.64 803.36 406.07 813.64 379.52"/><polygon class="cls-1" points="665.2 417.62 681.28 435.78 704.46 428.62 692.16 449.52 706.13 469.35 682.45 464.11 667.91 483.53 665.58 459.38 642.62 451.56 664.86 441.88 665.2 417.62"/><polygon class="cls-1" points="967.54 415.54 969.16 439.74 991.87 448.25 969.36 457.26 968.29 481.5 952.76 462.87 929.38 469.34 942.3 448.81 928.92 428.58 952.43 434.52 967.54 415.54"/><path class="cls-3" d="M791.58,1521.07A564,564,0,0,1,476.09,1214.3" transform="translate(-188.26 -157.04)"/><path class="cls-3" d="M1228.09,1521.07a564,564,0,0,0,315.5-306.77" transform="translate(-188.26 -157.04)"/><text class="cls-4" transform="translate(284.23 1017.14) rotate(-104.45)">N</text><text class="cls-5" transform="translate(268.86 956.03) rotate(-98.62)">A</text><text class="cls-6" transform="translate(261.51 903.87) rotate(-93.6)">T</text><text class="cls-6" transform="matrix(0.01, -1, 1, 0.01, 259.2, 859.41)">I</text><text class="cls-6" transform="matrix(0.09, -1, 1, 0.09, 259, 828)">O</text><text class="cls-6" transform="translate(265.26 764.21) rotate(-78.21)">N</text><text class="cls-7" transform="translate(278.72 702.67) rotate(-72.04)">A</text><text class="cls-8" transform="translate(296.31 650.33) rotate(-66.83)">L</text><text class="cls-9" transform="translate(325.27 588.16) rotate(-60.61)">I</text><text class="cls-10" transform="matrix(0.57, -0.82, 0.82, 0.57, 340.49, 560.72)">N</text><text class="cls-11" transform="translate(376.94 509.2) rotate(-49.46)">S</text><text class="cls-6" transform="translate(407.66 473.52) rotate(-45)">T</text><text class="cls-6" transform="matrix(0.75, -0.66, 0.66, 0.75, 439.5, 442.37)">I</text><text class="cls-6" transform="matrix(0.8, -0.6, 0.6, 0.8, 463.33, 421.66)">T</text><text class="cls-6" transform="translate(498.62 394.94) rotate(-31.77)">U</text><text class="cls-6" transform="translate(549.5 364.26) rotate(-26.39)">T</text><text class="cls-6" transform="translate(589.29 344.75) rotate(-21.48)">E</text><text class="cls-6" transform="translate(658.43 319.46) rotate(-13.01)">O</text><text class="cls-6" transform="translate(721.17 305.79) rotate(-7.15)">F</text><text class="cls-8" transform="translate(792.95 298.84) rotate(0.41)">P</text><text class="cls-6" transform="translate(842.68 299.4) rotate(5.79)">R</text><text class="cls-6" transform="matrix(0.98, 0.21, -0.21, 0.98, 897.98, 305.16)">O</text><text class="cls-6" transform="translate(960.63 319.28) rotate(17.86)">F</text><text class="cls-6" transform="translate(1006.31 334.32) rotate(22.98)">E</text><text class="cls-6" transform="matrix(0.88, 0.47, -0.47, 0.88, 1051.98, 354.11)">S</text><text class="cls-6" transform="translate(1093.36 376.52) rotate(32.94)">S</text><text class="cls-6" transform="matrix(0.8, 0.6, -0.6, 0.8, 1132.69, 402.68)">I</text><text class="cls-12" transform="matrix(0.74, 0.67, -0.67, 0.74, 1157.99, 421.28)">O</text><text class="cls-6" transform="translate(1205.32 464.48) rotate(48.54)">N</text><text class="cls-13" transform="matrix(0.58, 0.82, -0.82, 0.58, 1246.6, 512.12)">A</text><text class="cls-8" transform="matrix(0.5, 0.86, -0.86, 0.5, 1278.08, 557.49)">L</text><text class="cls-8" transform="translate(1310.79 617.62) rotate(66.93)">L</text><text class="cls-14" transform="matrix(0.31, 0.95, -0.95, 0.31, 1328, 658.55)">E</text><text class="cls-13" transform="translate(1343.25 705.83) rotate(77.35)">A</text><text class="cls-15" transform="matrix(0.12, 0.99, -0.99, 0.12, 1354.97, 759.67)">R</text><text class="cls-6" transform="translate(1361.42 814.93) rotate(89.27)">N</text><text class="cls-6" transform="translate(1361.24 878.19) rotate(94.1)">I</text><text class="cls-6" transform="matrix(-0.16, 0.99, -0.99, -0.16, 1359.35, 909.53)">N</text><text class="cls-6" transform="translate(1348.98 971.68) rotate(105.28)">G</text><path class="cls-1" d="M875.9,1050.1H806.56l-73.4-116.87V1050.1H663.83V817.67h69.33l73.4,118.84V817.67H875.9Z" transform="translate(-188.26 -157.04)"/><path class="cls-1" d="M976.47,817.67V1050.1H907.13V817.67Z" transform="translate(-188.26 -157.04)"/><path class="cls-1" d="M1279.74,994.94h66.83v55.16H1210.4V817.67h69.34Z" transform="translate(-188.26 -157.04)"/><path class="cls-1" d="M1156.72,831.09l76.61-129.47-9.68,11.55v.06L1148.42,826.4l-35.48,55.1q5.31,5.34,5.32,15.94,0,21.34-21.55,21.34H1077V876.11h19.67a34.85,34.85,0,0,1,6.53.58l38.81-53,81.56-110.46L1133.31,821a116.31,116.31,0,0,0-28.79-3.31H1007.7V1050.1H1077V976.23h27.48q26.87,0,45.75-10.5a70.75,70.75,0,0,0,28.59-28.4q9.67-17.88,9.68-39.89,0-36.44-21.71-58.1A65.81,65.81,0,0,0,1156.72,831.09Z" transform="translate(-188.26 -157.04)"/><path class="cls-1" d="M1226.32,685c3-2.82,6.61-2.53,10-1.41,5.36,1.76,8.52.34,12.22-4.34,8.3-10.49,17.73-20.08,26.73-30,4-4.38,7.75-9,12.12-12.91a40.51,40.51,0,0,1,11-7.08c3.31-1.41,4.65.24,3.52,3.8-1.56,5-8.82,13.48-9.32,14-3.83,4.3-7.95,8.37-11.67,12.76a7.71,7.71,0,0,0-1.72,5.2c.65,6,1.81,12,2.74,18,1,6.2,2.07,12.38,2.75,18.61.29,2.66-1.53,8.31-2,8.4-2-4-4.08-8-6.15-12-3.31-6.36-6.68-12.69-10-19.06-1-2-2.12-1.75-3.46-.47-3.75,3.58-7.64,7-11.15,10.82-.91,1-1,3.14-.79,4.67.35,2.79,1.4,5.5,1.73,8.29.21,1.81-.33,3.71-.53,5.56l-1,.32C1248.82,705.57,1231.76,689.41,1226.32,685Z" transform="translate(-188.26 -157.04)"/><path class="cls-1" d="M1221.15,653.33c3.17-.85,5.57-1.94,8-2a89.83,89.83,0,0,1,11,.65c4,.33,8,.74,12,1.12l8.63.81c-3.75,4.07-7.06,7.71-10.45,11.27a1.91,1.91,0,0,1-1.68.14C1239.67,661.42,1230.7,657.49,1221.15,653.33Z" transform="translate(-188.26 -157.04)"/></svg>